<?xml version="1.0" standalone="no"?>
<!DOCTYPE svg PUBLIC "-//W3C//DTD SVG 1.1//EN" "http://www.w3.org/Graphics/SVG/1.1/DTD/svg11.dtd" >
<svg xmlns="http://www.w3.org/2000/svg">
<metadata>
<json>
<![CDATA[
{
	"fontFamily": "icomoon",
	"majorVersion": 1,
	"minorVersion": 0,
	"version": "Version 1.0",
	"fontId": "icomoon",
	"psName": "icomoon",
	"subFamily": "Regular",
	"fullName": "icomoon",
	"description": "Font generated by IcoMoon."
}
]]>
</json>
</metadata>
<defs>
<font id="icomoon" horiz-adv-x="1024">
<font-face units-per-em="1024" ascent="960" descent="-64" />
<missing-glyph horiz-adv-x="1024" />
<glyph unicode="&#x20;" horiz-adv-x="512" d="" />
<glyph unicode="&#xe900;" glyph-name="video_call" data-tags="video-call" d="M951.968 632.913h-49.772c-14.502 84.204-55.938 161.334-119.172 220.43-73.594 68.778-169.844 106.656-271.024 106.656-101.186 0-197.436-37.878-271.026-106.656-63.232-59.098-104.664-136.224-119.164-220.428h-49.778c-24.298 0-43.996-19.698-43.996-43.996v-351.974c0-24.298 19.698-43.996 43.996-43.996h175.986c24.298 0 43.996 19.698 43.996 43.996v351.974c0 24.298-19.698 43.996-43.996 43.996h-36.496c31.022 137.296 154.908 239.090 300.478 239.090 145.568 0 269.454-101.796 300.48-239.092h-36.5c-24.298 0-43.996-19.698-43.996-43.996v-351.974c0-24.298 19.698-43.996 43.996-43.996h43.996v-99.658c0-22.036-17.928-39.964-39.964-39.964h-75.886c-6.042 17.076-22.292 29.332-41.44 29.332h-150.686c-24.298 0-43.996-19.698-43.996-43.996v-58.664c0-24.298 19.698-43.996 43.996-43.996h150.688c19.148 0 35.394 12.254 41.44 29.332h75.886c70.556 0 127.958 57.402 127.958 127.958v99.658h43.996c24.298 0 43.996 19.698 43.996 43.996v351.97c0 24.302-19.698 43.998-43.996 43.998z" />
<glyph unicode="&#xe901;" glyph-name="search" data-tags="search" d="M991.283 27.298l-243.714 253.474c62.663 74.491 96.997 168.216 96.997 265.788 0 227.967-185.473 413.44-413.44 413.44s-413.44-185.473-413.44-413.44 185.473-413.44 413.44-413.44c85.582 0 167.137 25.813 236.865 74.815l245.565-255.398c10.264-10.66 24.069-16.538 38.863-16.538 14.003 0 27.287 5.339 37.371 15.046 21.427 20.618 22.11 54.808 1.492 76.253zM431.127 852.146c168.504 0 305.586-137.082 305.586-305.586s-137.082-305.586-305.586-305.586-305.586 137.082-305.586 305.586 137.082 305.586 305.586 305.586z" />
<glyph unicode="&#xe902;" glyph-name="location" data-tags="placeholder" d="M893.625-27.932l-134.998 285.562c-2.694 5.698-7.362 10.064-12.96 12.446l-67.16 29.898 116.37 195.036c0.278 0.468 0.54 0.942 0.79 1.426 23.136 45.158 34.868 93.956 34.868 145.030 0 85.918-33.692 166.466-94.87 226.804-61.168 60.324-142.204 92.906-228.174 91.698-83.496-1.158-162.112-34.696-221.37-94.44-59.252-59.74-92.156-138.626-92.652-222.132-0.304-51.030 11.754-101.846 34.862-146.958 0.248-0.482 0.51-0.958 0.788-1.426l116.368-195.034-67.548-30.062c-5.526-2.458-9.986-6.816-12.57-12.284l-134.994-285.564c-4.518-9.55-2.612-20.906 4.776-28.46 7.386-7.554 18.69-9.718 28.344-5.422l169.116 75.292 169.116-75.292c6.542-2.91 14.012-2.91 20.554 0l169.116 75.292 169.116-75.292c3.304-1.47 6.802-2.186 10.27-2.186 6.662 0 13.216 2.636 18.074 7.606 7.382 7.556 9.286 18.908 4.768 28.462zM272.947 520.188c-19.46 38.264-29.198 79.61-28.94 122.906 0.856 144.858 119.372 264.34 264.188 266.346 72.332 0.972 140.526-26.398 191.986-77.152 51.476-50.766 79.822-118.534 79.822-190.824 0-42.718-9.738-83.514-28.946-121.276l-217.356-364.296c-6.636-11.12-17.384-12.32-21.698-12.32-4.316 0-15.064 1.2-21.698 12.32l-217.358 364.296zM701.669 64.218c-6.542 2.91-14.012 2.91-20.554 0l-169.116-75.292-169.116 75.292c-6.542 2.91-14.012 2.91-20.554 0l-117.156-52.16 101.876 215.498 64.516 28.712 75.336-126.266c13.808-23.144 38.144-36.962 65.094-36.962s51.286 13.818 65.094 36.96l75.336 126.266 64.522-28.722 101.87-215.488-117.148 52.162zM512.009 756.786c-63.588 0-115.318-51.73-115.318-115.316s51.73-115.316 115.318-115.316c63.586-0.002 115.316 51.73 115.316 115.316s-51.73 115.316-115.316 115.316zM512.009 576.686c-35.722-0.002-64.786 29.058-64.786 64.784 0 35.722 29.062 64.784 64.786 64.784 35.722 0 64.784-29.062 64.784-64.784s-29.062-64.784-64.784-64.784z" />
<glyph unicode="&#xe903;" glyph-name="open_book" data-tags="open-book" d="M156.642 839.158c-0.028 0-0.059 0-0.086 0-9.685 0-18.794-3.775-25.672-10.637-6.954-6.937-10.785-16.174-10.785-26.007v-549.462c0-20.149 16.456-36.581 36.688-36.633 85.292-0.203 228.191-17.98 326.771-121.143v575.028c0 6.83-1.745 13.247-5.037 18.556-80.91 130.3-236.393 150.098-321.878 150.298zM903.906 253.052v549.466c0 9.833-3.831 19.070-10.785 26.007-6.878 6.861-15.994 10.637-25.669 10.637-0.031 0-0.062 0-0.090 0-85.482-0.203-240.965-20.001-321.878-150.301-3.293-5.31-5.034-11.726-5.034-18.556v-575.024c98.58 103.162 241.479 120.939 326.771 121.143 20.228 0.052 36.685 16.484 36.685 36.63zM987.364 712.444h-26.569v-459.391c0-51.445-41.915-93.395-93.439-93.522-72.346-0.172-191.633-14.319-276.115-94.277 146.112 35.775 300.14 12.519 387.921-7.485 10.961-2.496 22.287 0.083 31.068 7.082 8.751 6.982 13.771 17.418 13.771 28.62v582.337c0.003 20.201-16.436 36.637-36.637 36.637zM63.206 253.052v459.391h-26.569c-20.197 0-36.637-16.436-36.637-36.637v-582.327c0-11.205 5.020-21.639 13.771-28.62 8.775-6.996 20.090-9.585 31.068-7.082 87.782 20.008 241.813 43.26 387.918 7.485-84.479 79.955-203.766 94.098-276.112 94.27-51.521 0.124-93.439 42.074-93.439 93.519z" />
<glyph unicode="&#xe904;" glyph-name="newsletter" data-tags="newsletter (1)" d="M1003.556 529.934l-198.622 127.996c-1.553 0.989-3.266 1.363-4.936 1.916v44.145c0 11.788-9.541 21.336-21.336 21.336h-79.216l-165.467 103.419c-6.913 4.335-15.706 4.335-22.625 0l-165.467-103.419h-100.551c-11.788 0-21.336-9.541-21.336-21.336v-44.133c-1.67-0.553-3.389-0.933-4.936-1.928l-198.622-127.996c-6.085-3.936-9.775-10.689-9.775-17.934v-554.662c0-11.788 9.541-21.336 21.336-21.336h959.993c11.788 0 21.336 9.541 21.336 21.336v554.656c0 7.251-3.69 13.999-9.775 17.94zM522.669 785.491l96.278-60.164h-192.556l96.278 60.164zM266.67 682.662h490.661v-479.996c0-0.061 0.037-0.111 0.037-0.178l-72.167-43.82-173.658 94.719c-6.477 3.5-14.355 3.481-20.789-0.209l-158.468-90.556-65.647 39.86c0 0.061 0.037 0.111 0.037 0.172l-0.006 480.009zM53.337 500.371l170.662 109.964v-381.968l-170.662 103.627v168.378zM53.337 282.096l236.609-143.653-236.609-135.21v278.863zM96.328-21.339l405.257 231.562 424.536-231.562h-829.792zM970.665 2.969l-242.178 132.091 242.178 147.042v-279.133zM970.665 331.994l-170.668-103.621v381.962l170.668-109.97v-168.371zM352.001 469.329h255.998c11.788 0 21.336 9.541 21.336 21.336v127.996c0 11.788-9.541 21.336-21.336 21.336h-255.998c-11.788 0-21.336-9.541-21.336-21.336v-127.996c0-11.795 9.547-21.336 21.336-21.336zM373.331 597.331h213.333v-85.331h-213.333v85.331zM330.665 426.663h341.329v-42.665h-341.329v42.665zM330.665 341.326h341.329v-42.665h-341.329v42.665zM906.664 703.991c5.458 0 10.917 2.081 15.085 6.25l75.415 75.415c8.332 8.332 8.332 21.833 0 30.165-8.332 8.338-21.833 8.332-30.165 0l-75.415-75.415c-8.332-8.332-8.332-21.833 0-30.165 4.163-4.169 9.621-6.25 15.079-6.25zM102.253 710.242c4.169-4.169 9.627-6.25 15.085-6.25s10.917 2.081 15.085 6.25c8.332 8.332 8.332 21.833 0 30.165l-75.421 75.415c-8.332 8.332-21.833 8.332-30.165 0s-8.332-21.833 0-30.165l75.415-75.415zM728.082 812.18c2.585-1.044 5.274-1.517 7.914-1.517 8.461 0 16.479 5.065 19.813 13.415l42.665 106.667c4.378 10.935-0.958 23.356-11.893 27.727-10.831 4.353-23.356-0.915-27.727-11.893l-42.665-106.667c-4.378-10.941 0.952-23.362 11.893-27.733zM289.523 824.073c3.334-8.356 11.352-13.415 19.813-13.415 2.646 0 5.335 0.479 7.914 1.523 10.935 4.378 16.27 16.792 11.893 27.727l-42.665 106.667c-4.378 10.978-16.872 16.252-27.727 11.893-10.935-4.378-16.27-16.792-11.893-27.727l42.665-106.667z" />
<glyph unicode="&#xe905;" glyph-name="menu" data-tags="menu-options" d="M43.886 733.256h936.229c24.137 0 43.886 19.749 43.886 43.886s-19.749 43.886-43.886 43.886h-936.229c-24.137 0-43.886-19.749-43.886-43.886s19.749-43.886 43.886-43.886zM43.886 404.114h936.229c24.137 0 43.886 19.749 43.886 43.886s-19.749 43.886-43.886 43.886h-936.229c-24.137 0-43.886-19.749-43.886-43.886s19.749-43.886 43.886-43.886zM43.886 74.971h936.229c24.137 0 43.886 19.749 43.886 43.886s-19.749 43.886-43.886 43.886h-936.229c-24.137 0-43.886-19.749-43.886-43.886s19.749-43.886 43.886-43.886z" />
<glyph unicode="&#xe906;" glyph-name="instagram" data-tags="instagram" d="M704 960h-384c-176.704 0-320-143.296-320-320v-384c0-176.704 143.296-320 320-320h384c176.704 0 320 143.296 320 320v384c0 176.704-143.296 320-320 320zM928 256c0-123.52-100.48-224-224-224h-384c-123.52 0-224 100.48-224 224v384c0 123.52 100.48 224 224 224h384c123.52 0 224-100.48 224-224v-384zM512 704c-141.376 0-256-114.624-256-256s114.624-256 256-256 256 114.624 256 256-114.624 256-256 256zM512 288c-88.192 0-160 71.808-160 160 0 88.256 71.808 160 160 160s160-71.744 160-160c0-88.192-71.808-160-160-160zM821.312 723.2c0-18.84-15.272-34.112-34.112-34.112s-34.112 15.272-34.112 34.112c0 18.84 15.272 34.112 34.112 34.112s34.112-15.272 34.112-34.112z" />
<glyph unicode="&#xe907;" glyph-name="google_plus" data-tags="google-plus (1)" d="M359.254 380.472h160.014c-28.159-79.337-104.143-136.325-193.089-135.654-107.942 0.894-197.336 87.158-201.582 195.101-4.47 115.764 88.276 211.415 203.146 211.415 52.519 0 100.344-19.89 136.548-52.742 8.492-7.822 21.454-7.822 29.947 0l58.776 55.2c9.163 8.716 9.163 23.242 0 31.958-57.212 54.306-134.090 88.052-218.79 89.617-180.798 3.799-332.99-144.37-334.331-324.945-1.341-181.915 145.935-329.861 327.626-329.861 174.764 0 317.57 136.772 327.179 309.301 0.223 2.235 0.447 75.090 0.447 75.090h-295.892c-12.068 0-21.901-9.833-21.901-21.901v-80.454c0-12.292 9.833-22.125 21.901-22.125zM926.231 497.577v78.666c0 10.727-8.716 19.22-19.22 19.22h-66.151c-10.727 0-19.22-8.716-19.22-19.22v-78.666h-78.666c-10.727 0-19.22-8.716-19.22-19.22v-66.151c0-10.727 8.716-19.22 19.22-19.22h78.666v-78.666c0-10.727 8.716-19.22 19.22-19.22h66.151c10.727 0 19.22 8.716 19.22 19.22v78.666h78.666c10.727 0 19.22 8.716 19.22 19.22v66.151c0 10.727-8.716 19.22-19.22 19.22h-78.666z" />
<glyph unicode="&#xe908;" glyph-name="email" data-tags="email" d="M898.993 837.641h-773.774c-69.072 0-125.219-56.147-125.219-125.219v-528.844c0-69.072 56.147-125.219 125.219-125.219h773.562c69.072 0 125.219 56.147 125.219 125.219v528.632c0.212 69.072-55.935 125.431-125.007 125.431zM967.005 183.578c0-37.502-30.51-68.012-68.012-68.012h-773.774c-37.502 0-68.012 30.51-68.012 68.012v528.632c0 37.502 30.51 68.012 68.012 68.012h773.562c37.502 0 68.012-30.51 68.012-68.012v-528.632h0.212zM645.8 454.568l250.438 224.589c11.653 10.594 12.713 28.603 2.119 40.468-10.594 11.653-28.603 12.713-40.468 2.119l-345.359-309.976-67.377 60.173c-0.212 0.212-0.424 0.424-0.424 0.636-1.483 1.483-2.966 2.754-4.661 4.026l-274.168 245.353c-11.865 10.594-29.875 9.534-40.468-2.331s-9.534-29.875 2.331-40.468l253.405-226.496-252.345-236.242c-11.441-10.806-12.077-28.815-1.271-40.468 5.721-5.933 13.348-9.111 20.976-9.111 6.992 0 13.984 2.543 19.493 7.628l256.159 239.633 69.496-62.080c5.509-4.873 12.289-7.204 19.069-7.204s13.772 2.543 19.069 7.416l71.402 63.987 254.676-241.963c5.509-5.297 12.713-7.839 19.705-7.839 7.628 0 15.043 2.966 20.764 8.899 10.806 11.441 10.382 29.663-1.059 40.468l-251.498 238.785z" />
<glyph unicode="&#xe909;" glyph-name="commerce" data-tags="commerce" d="M119.401 258.161c0-78.658 63.757-142.688 142.302-143.139-31.248-15.391-52.8-47.559-52.8-84.682 0-52.021 42.315-94.339 94.329-94.339s94.336 42.318 94.336 94.339c0 37.105-21.542 69.263-52.762 84.661h364.23c-31.22-15.398-52.755-47.556-52.755-84.661 0-52.021 42.318-94.339 94.329-94.339 52.014 0 94.329 42.318 94.329 94.339 0 37.105-21.535 69.263-52.755 84.661h77.731c19.153 0 34.675 15.525 34.675 34.678 0 19.149-15.522 34.675-34.675 34.675h-607.384c-40.681 0-73.783 33.113-73.783 73.807v56.368c21.563-13.022 46.814-20.532 73.783-20.532h488.083c75.49 0 150.862 56.865 171.591 129.455l89.522 313.354c2.989 10.461 0.896 21.718-5.658 30.406-6.551 8.688-16.808 13.791-27.682 13.791h-789.638v35.833c0 78.941-64.209 143.163-143.139 143.163-19.149 0-34.671-15.529-34.671-34.678s15.522-34.675 34.675-34.675c40.688 0 73.79-33.113 73.79-73.814v-558.673z" />
<glyph unicode="&#xe90a;" glyph-name="check" data-tags="checked" d="M11.817 408.615c-7.877 7.877-11.815 19.692-11.815 27.569s3.938 19.692 11.815 27.569l55.138 55.138c15.754 15.754 39.385 15.754 55.138 0l3.938-3.938 216.615-232.369c7.877-7.877 19.692-7.877 27.569 0l527.754 547.446h3.938c15.754 15.754 39.385 15.754 55.138 0l55.138-55.138c15.754-15.754 15.754-39.385 0-55.138v0l-630.154-653.785c-7.877-7.877-15.754-11.815-27.569-11.815s-19.692 3.938-27.569 11.815l-307.2 330.831-7.877 11.815z" />
<glyph unicode="&#xe90b;" glyph-name="close" data-tags="cancel-music" d="M633.701 447.997l365.094 365.094c33.607 33.607 33.607 88.095 0 121.698-33.607 33.607-88.091 33.607-121.698 0l-365.099-365.099-365.099 365.104c-33.607 33.607-88.091 33.607-121.698 0-33.603-33.607-33.603-88.095 0-121.698l365.099-365.094-365.099-365.099c-33.603-33.607-33.603-88.095 0-121.698 33.607-33.607 88.091-33.607 121.698 0l365.099 365.099 365.099-365.099c33.603-33.607 88.091-33.607 121.698 0s33.607 88.091 0 121.698l-365.094 365.094z" />
<glyph unicode="&#xe90c;" glyph-name="refrigerator" data-tags="refrigerator" d="M770.288 960h-516.575c-19.626 0-35.536-15.911-35.536-35.536v-229.329h587.648v229.329c0 19.626-15.913 35.536-35.536 35.536zM328.47 775.054c0-11.777-9.545-21.322-21.322-21.322s-21.322 9.545-21.322 21.322v105.029c0 11.777 9.545 21.322 21.322 21.322s21.322-9.545 21.322-21.322v-105.029zM218.176 18.284c0-19.626 15.911-35.536 35.536-35.536h45.067v-12.788c0-18.754 15.205-33.959 33.959-33.959s33.956 15.205 33.956 33.959v12.788h290.608v-12.788c0-18.754 15.205-33.959 33.959-33.959s33.959 15.205 33.959 33.959v12.788h45.067c19.623 0 35.536 15.911 35.536 35.536v605.778h-587.648v-605.778zM285.826 519.98c0 11.777 9.545 21.322 21.322 21.322s21.322-9.545 21.322-21.322v-105.029c0-11.777-9.545-21.322-21.322-21.322s-21.322 9.545-21.322 21.322v105.029z" />
<glyph unicode="&#xe90d;" glyph-name="washing_machine" data-tags="washing-machine" d="M512.001 614.056c-130.616 0-237.138-104.032-241.734-233.54 6.38-3.544 14.376-8.22 24.84-7.832 26.75 0.97 57.082 33.752 57.082 33.736 59.64 54.798 101.75-10.072 153.682-30.596 29.944-12.274 56.404 14.17 78.792 30.636 32.518 23.898 74.282 29.518 106.318 0.096 0.292-0.236 28.52-29.254 62.976-30.582-2.216 131.64-109.804 238.082-241.956 238.082zM809.515 960h-733.406v-885.622c0-76.108 62.27-138.378 138.378-138.378h595.026c76.108 0 138.378 62.27 138.378 138.378v885.622h-138.376zM636.527 876.974c26.776 0 48.446-21.67 48.446-48.432 0-26.75-21.67-48.432-48.446-48.432-26.75 0-48.42 21.684-48.42 48.432 0.002 26.762 21.672 48.432 48.42 48.432zM172.973 863.134h152.216v-69.188h-152.216v69.188zM512.001 60.54c-171.962 0-311.35 139.388-311.35 311.35 0 171.978 139.388 311.35 311.35 311.35 171.978 0 311.35-139.376 311.35-311.35 0-171.962-139.372-311.35-311.35-311.35zM802.581 780.108c-26.75 0-48.42 21.67-48.42 48.432s21.67 48.432 48.42 48.432c26.776 0 48.446-21.67 48.446-48.432s-21.668-48.432-48.446-48.432z" />
<glyph unicode="&#xe90e;" glyph-name="vacuum_cleaner" data-tags="vacuum cleaner" d="M772.851 411.777c-28.152 134.327-95.074 257.070-253.771 263.279-14.4 23.704-23.37 40.55-25.779 45.183-40.55 93.425-135.29 156.029-236.462 156.029-141.629 0-256.848-115.219-256.848-256.829 0-38.382 8.748-74.688 23.945-107.398 40.643-87.401 128.989-148.263 231.476-148.263h175.544c30.709 0 55.599 24.871 55.599 55.599 0 30.709-24.89 55.599-55.599 55.599h-175.507c-36.955 0-70.592 14.104-96.13 37.066-29.449 26.465-48.111 64.736-48.111 107.398 0 80.303 65.329 145.632 145.65 145.632 57.841 0 112.069-36.269 134.938-90.218l1.538-3.299c0.871-1.742 3.873-7.617 8.692-16.402-62.919-27.355-104.266-79.877-131.195-143.093h173.524c43.775-0.019 79.265-38.845 79.265-86.734v-11.898c0-47.871-35.491-86.716-79.284-86.716h-217.095c-7.339-69.498-7.413-136.161-7.413-185.329 0-27.077 19.256-49.112 50.484-66.311-0.074-1.131-0.334-2.168-0.334-3.336 0-28.726 23.277-52.003 51.985-52.003 18.181 0 34.138 9.378 43.423 23.555 90.533-18.144 205.956-17.384 294.21 2.391 9.007-15.456 25.575-25.909 44.72-25.909 28.708 0 51.985 23.277 51.985 52.022 0 3.632-0.389 7.209-1.131 10.638 23.945 15.975 38.196 35.657 38.196 58.972 0 39.345-0.037 89.866-3.799 144.019 30.635-9.081 62.586-14.4 95.815-14.4 2.91 0 5.931 0.259 8.896 0.371v111.29c-42.459-1.705-83.38 9.841-121.428 29.097zM513.872 132.226c-35.324 0-63.957 28.633-63.957 63.957 0 35.305 28.633 63.957 63.957 63.957s63.957-28.652 63.957-63.957c0-35.324-28.633-63.957-63.957-63.957zM998.823 456.441h-60.807c-13.9 0-25.186-11.287-25.186-25.186v-246.154c0-13.9 11.287-25.168 25.186-25.168h60.807c13.9 0 25.186 11.268 25.186 25.168v246.154c0 13.9-11.287 25.186-25.186 25.186z" />
<glyph unicode="&#xe90f;" glyph-name="oven" data-tags="oven" d="M883.248 960h-742.494c-46.34 0-84.040-37.702-84.040-84.040v-165.528h910.574v165.528c0 46.338-37.7 84.040-84.040 84.040zM261.404 782.798c-28.902 0-52.416 23.514-52.416 52.416s23.514 52.416 52.416 52.416c28.902 0 52.416-23.514 52.416-52.416s-23.512-52.416-52.416-52.416zM428.47 782.798c-28.902 0-52.416 23.514-52.416 52.416s23.514 52.416 52.416 52.416c28.902 0 52.416-23.514 52.416-52.416s-23.514-52.416-52.416-52.416zM595.53 782.798c-28.902 0-52.416 23.514-52.416 52.416s23.514 52.416 52.416 52.416c28.902 0 52.416-23.514 52.416-52.416 0.002-28.902-23.51-52.416-52.416-52.416zM762.596 782.798c-28.902 0-52.416 23.514-52.416 52.416s23.514 52.416 52.416 52.416 52.418-23.514 52.418-52.416c0-28.902-23.516-52.416-52.418-52.416zM239.222 497.518h545.562v-56.73h-545.562v56.73zM239.222 379.944h545.562v-56.73h-545.562v56.73zM239.222 262.392h545.562v-56.73h-545.562v56.73zM239.222 144.82h545.562v-56.73h-545.562v56.73zM56.712 649.596l0.002-713.596h910.572v713.596h-910.574zM845.618 27.254h-667.236v531.092h667.238v-531.092z" />
<glyph unicode="&#xe910;" glyph-name="mixer" data-tags="mixer" d="M245.044 959.998l18.838-172.019h-30.066c-66.229 0-120.112-53.882-120.112-120.114v-168.471c0-66.231 53.879-120.114 120.112-120.114h74.823l9.954-90.908h127.456l-11.16 223.953 60.76 3.028 11.312-226.983h68.432l11.312 226.984 60.76-3.028-11.162-223.953h127.797l35.916 310.156c-23.030 3.104-39.948 7.856-56.414 12.492-24.988 7.036-48.59 13.682-97.018 13.682-48.426 0-72.026-6.646-97.010-13.682-27.862-7.846-56.672-15.958-113.5-15.958-56.821 0-85.694 8.112-113.616 15.952-12.73 3.574-25.022 7.016-40.246 9.556l19.762-180.453h-68.162c-32.686 0-59.276 26.592-59.276 59.28v168.472c0 32.686 26.592 59.28 59.276 59.28h36.727l4.842-44.21c26.712-3.032 45.394-8.262 63.528-13.356 25.058-7.038 48.726-13.686 97.164-13.686 48.426 0 72.026 6.646 97.010 13.682 27.862 7.846 56.672 15.958 113.5 15.958s85.64-8.112 113.504-15.956c14.535-4.092 28.47-8.014 46.928-10.602l17.002 146.814 86.277 154.208h-665.253zM770.342 227.537h-458.33c-40.618 0-73.66-33.044-73.66-73.66v-144.213c0-40.618 33.044-73.662 73.66-73.662h458.33c40.618 0 73.662 33.044 73.662 73.662v144.213c0 40.618-33.042 73.66-73.662 73.66zM541.18 22.306c-32.838 0-59.461 26.624-59.461 59.461s26.624 59.461 59.461 59.461 59.461-26.624 59.461-59.461c-0.002-32.84-26.624-59.461-59.461-59.461z" />
<glyph unicode="&#xe911;" glyph-name="hand_shake" data-tags="hand-shake" d="M1023.998 726.349v-309.976c0 0-66.342-13.070-80.009-14.789-13.624-1.715-56.437-15.539-87.466 14.285-47.851 45.861-217.863 214.935-217.863 214.935s-29.314 28.764-76.381 3.905c-43.206-22.772-107.253-56.146-134.005-69.142-50.572-26.917-92.486 15.789-92.486 48.32 0 25.233 15.746 42.359 38.254 54.954 60.999 36.979 189.568 109.145 243.117 137.598 32.549 17.312 56.001 18.795 100.689-18.851 55.037-46.287 104.015-88.478 104.015-88.478s15.975-13.332 41.452-7.963c62.561 13.227 160.684 35.202 160.684 35.202zM347.304 201.126c8.233 21.153 5.481 44.811-10.304 61.043-14.184 14.518-34.892 18.345-54.638 13.82 5.523 19.584 2.473 40.429-11.787 55.14-14.227 14.481-34.896 18.384-54.64 13.818 5.481 19.556 2.44 40.398-11.828 55.065-22.343 22.917-60.989 21.934-86.377-2.267-25.254-24.233-41.431-68.138-18.892-93.98 22.502-25.712 48.357-10.068 68.067-5.576-5.483-19.556-21.913-37.745-1.68-63.342 20.215-25.609 48.355-10.072 68.086-5.622-5.502-19.481-21.215-39.497-1.758-63.231 19.632-23.805 51.787-11.122 73.024-4.525-8.196-21.072-25.739-43.787-3.2-69.241 22.504-25.638 74.509-13.777 99.912 10.461 25.334 24.233 27.766 62.64 5.483 85.629-15.384 15.773-38.318 19.442-59.468 12.808zM810.819 362.393c-183.634 183.636-97.261 97.226-196.084 196.262 0 0-29.7 29.568-68.844 12.392-27.479-12.041-62.857-28.452-89.476-40.981-29.252-15.339-50.303-20.087-60.187-20.020-56.549 0.37-102.429 45.822-102.429 102.315 0 36.648 19.456 68.555 48.475 86.666 40.805 28.237 134.73 78.195 134.73 78.195s-28.613 36.258-91.294 36.258c-62.662 0-193.582-85.768-193.582-85.768s-37.14-23.789-90.084-2.362l-102.044 35.535v-354.7c0 0 29.138-8.434 55.32-19.128 5.913 16.863 15.454 32.436 28.69 45.297 43.435 41.371 115.43 41.801 154.949 1.109 11.905-12.37 20.213-27.126 24.452-43.437 15.923-4.915 30.347-13.622 41.938-25.564 11.94-12.287 20.217-27.126 24.491-43.355 15.905-4.919 30.307-13.659 41.938-25.609 13.097-13.506 21.822-29.82 25.896-47.495 16.626-4.843 31.65-13.853 43.752-26.225 23.75-24.394 32.179-57.491 27.072-89.416 0.041 0 0.12 0 0.157-0.072 0.388-0.508 14.715-16.479 23.648-25.487 17.508-17.525 46.097-17.525 63.658 0 17.446 17.518 17.523 46.051 0 63.658-0.628 0.626-63.165 66.038-58.132 71.111 4.996 5.037 84.67-77.867 86.154-79.383 17.485-17.489 46.055-17.489 63.619 0 17.523 17.518 17.485 46.051 0 63.617-0.859 0.818-4.446 4.254-5.777 5.622 0 0-78.995 70.371-72.983 76.383 6.087 6.050 104.209-85.52 104.369-85.52 17.638-15.884 44.807-15.766 61.776 1.211 16.51 16.508 16.863 42.621 2.227 60.218-0.31 0.936-74.78 78.761-68.968 84.617 5.897 5.932 79.584-69.943 79.739-70.1 17.446-17.485 46.055-17.485 63.619 0 17.485 17.487 17.485 46.055 0 63.698-0.238 0.149-0.55 0.306-0.783 0.459z" />
<glyph unicode="&#xe912;" glyph-name="technology" data-tags="technology" d="M662 96h-300c-44.112 0-80-35.888-80-80s35.888-80 80-80h300c44.112 0 80 35.888 80 80s-35.888 80-80 80zM512 608c-88.224 0-160-71.776-160-160s71.776-160 160-160 160 71.776 160 160-71.776 160-160 160zM512 228c-24.462 0-48.002 4.018-70 11.42v-83.42h140v83.42c-21.998-7.402-45.538-11.42-70-11.42zM292 448c0 4.034 0.118 8.042 0.332 12.022l-78.592-4.004c-61.98-3.158-116.69-37.592-146.342-92.114-29.654-54.52-28.83-119.158 2.202-172.906 31.030-53.748 86.596-86.78 148.638-88.358 1.552-0.040 3.094-0.060 4.64-0.060 60.244 0.002 115.424 29.946 148.306 80.742l43.604 67.36c-72.682 35.954-122.788 110.888-122.788 197.318zM662.842 875.452c-32.388 52.942-88.78 84.548-150.842 84.548s-118.454-31.606-150.842-84.548c-32.388-52.94-34.856-117.536-6.6-172.792l36.348-71.082c34.758 23.004 76.386 36.422 121.094 36.422s86.336-13.418 121.094-36.422l36.348 71.080c28.256 55.258 25.79 119.854-6.6 172.794zM956.602 363.906c-29.652 54.52-84.362 88.956-146.342 92.114l-78.592 4.004c0.216-3.982 0.332-7.988 0.332-12.022 0-86.43-50.106-161.364-122.788-197.318l43.604-67.36c32.884-50.798 88.058-80.74 148.304-80.74 1.542 0 3.092 0.020 4.64 0.060 62.042 1.58 117.61 34.612 148.638 88.358 31.034 53.746 31.858 118.382 2.204 172.904z" />
<glyph unicode="&#xe913;" glyph-name="meeting" data-tags="meeting" d="M764.792 55.298l0.189-67.164c0.082-28.823 23.471-52.132 52.277-52.132 0.049 0 0.102 0 0.151 0 28.874 0.082 52.214 23.556 52.132 52.428l-0.189 66.868h-104.56zM636.763 68.674l-0.007-80.386c-0.002-28.874 23.402-52.281 52.277-52.283 0.002 0 0.002 0 0.004 0 28.87 0 52.279 23.404 52.279 52.277l0.004 67.022h-66.548c-14.369-0.004-27.585 5.012-38.009 13.371zM292.832 869.709c0-49.867-40.425-90.293-90.293-90.293s-90.293 40.425-90.293 90.293c0 49.867 40.425 90.293 90.293 90.293s90.293-40.425 90.293-90.293zM427.568 592.31l-136.804 16.050-89.466 88.895 84.86-44.491 31.288-3.67v38.645c0 33.686-27.307 60.996-60.996 60.996h-108.774c-33.686 0-60.996-27.31-60.996-60.996l-1.074-699.31c-0.082-28.872 23.258-52.345 52.132-52.428 0.051 0 0.1 0 0.151 0 28.803 0 52.194 23.309 52.277 52.132l1.094 386.511c0 0.049-0.002 0.098-0.002 0.147h22.546l0.029-386.515c0.002-28.872 23.411-52.279 52.283-52.277s52.279 23.411 52.277 52.283c-0.036 465.037-0.949 485.347-0.949 485.347l-56.862 6.67c-17.39 2.040-38.754 1.627-51.263 24.731l-69.44 130.411 100.146-99.508c6.919-6.875 15.945-11.229 25.632-12.365l151.755-17.803c23.922-2.803 45.544 14.318 48.345 38.194 2.807 23.9-14.292 45.546-38.189 48.349zM842.904 869.709c0-49.867-40.425-90.293-90.293-90.293s-90.293 40.425-90.293 90.293c0 49.867 40.425 90.293 90.293 90.293s90.293-40.425 90.293-90.293zM915.298 290.898h-45.666c0 27.594 0 32.386 0 64.546 0 12.276-9.951 22.226-22.226 22.226h-6.919c2.485 15.472 19.121 119.060 21.773 135.577 1.158 7.201 0.487 14.576-1.947 21.451l-51.585 145.661 59.742-88.797v96.178c0 33.686-27.31 60.996-60.996 60.996h-108.774c-33.686 0-60.996-27.31-60.996-60.996v-15.498l-139.644-79.824c8.999-15.65 13.236-34.22 10.971-53.528-2.885-24.6-15.77-45.58-34.1-59.402 2.134 0.807 4.236 1.769 6.281 2.936l156.49 89.455-0.922-256.553c18.343 14.694 36.482 13.358 45.871 13.358v26.761c0 23.511 13.765 44.502 34.458 54.284l19.857 123.641-7.959 90.699-2.414 27.198 47.873-135.179c-2.307-14.36-19.65-122.352-22.229-138.417h-9.573c-12.276 0-22.226-9.951-22.226-22.226 0-31.886 0-37.138 0-64.546h-45.664c-12.758 0-23.098-10.342-23.098-23.098v-151.618c0-12.758 10.342-23.098 23.098-23.098h240.523c12.758 0 23.098 10.342 23.098 23.098v151.618c0.002 12.756-10.34 23.098-23.095 23.098zM787.132 320.197c2.34-0.376 4.665-0.558 6.961-0.558 9.793 0 19.017 3.343 26.447 9.046h4.636v-37.785h-60.287v37.785h2.567c5.565-4.292 12.249-7.297 19.675-8.488z" />
<glyph unicode="&#xe914;" glyph-name="facebook" data-tags="facebook" d="M636.751 765.322h132.128v194.678h-155.323v-0.704c-187.651-6.325-226.306-112.449-229.821-223.494h-0.704v-96.989h-127.911v-191.166h127.911v-511.647h193.274v511.647h158.133l30.222 191.166h-188.353v59.036c0 37.249 24.597 67.471 60.442 67.471z" />
<glyph unicode="&#xe915;" glyph-name="twitter" data-tags="twitter" d="M1024.001 767.114c-37.636-17.249-78.408-28.227-120.748-32.931 43.907 26.658 76.839 67.43 92.521 116.044-40.772-23.522-86.248-42.34-133.293-51.749-37.636 40.772-92.521 65.863-153.678 65.863-116.044 0-210.132-94.088-210.132-210.132 0-17.249 1.569-32.931 4.704-48.612-174.064 9.409-329.311 92.521-432.808 219.541-18.818-31.363-28.227-67.43-28.227-105.066 0-73.703 37.636-137.997 94.088-175.631-34.498 1.569-67.43 10.978-95.657 26.658 0-1.569 0-1.569 0-3.136 0-101.93 72.134-186.609 169.36-205.427-17.249-4.704-36.067-7.84-54.885-7.84-14.113 0-26.658 1.569-39.203 3.136 26.658-83.112 105.066-144.269 196.018-145.837-72.134-56.454-163.087-89.384-261.881-89.384-17.249 0-32.931 1.569-50.181 3.136 92.521-59.59 203.858-94.088 323.038-94.088 387.332 0 599.032 319.902 599.032 599.032 0 9.409 0 18.818 0 26.658 37.636 29.794 73.703 67.43 101.93 109.77v0z" />
<glyph unicode="&#xe916;" glyph-name="tv" data-tags="technology-1" d="M939.016 670.497h-362.467l171.474 171.476c13.331 13.331 13.331 34.941 0 48.272-13.331 13.328-34.941 13.328-48.272 0l-187.754-187.759-247.509 247.518c-13.328 13.331-34.939 13.326-48.272 0-13.328-13.331-13.328-34.941 0-48.272l231.227-231.235h-362.461c-18.85 0-34.133-15.283-34.133-34.133v-512.139c0-18.847 15.283-34.133 34.133-34.133h286.478v-26.949l-137.818-61.863c-17.198-7.72-24.882-27.924-17.162-45.116 5.682-12.659 18.126-20.163 31.159-20.163 4.669 0 9.421 0.967 13.959 3.004l151.302 67.917h198.208l151.302-67.917c4.541-2.037 9.284-3.004 13.959-3.004 13.028 0 25.474 7.504 31.157 20.163 7.72 17.198 0.038 37.396-17.159 45.116l-137.821 61.863v26.949h286.473c18.85 0 34.133 15.286 34.133 34.133v512.139c0 18.852-15.278 34.133-34.133 34.133zM584.274 75.184h-144.555v14.912h144.555v-14.912zM904.883 158.363h-785.77v443.867h785.772v-443.867z" />
<glyph unicode="&#xe917;" glyph-name="performance" data-tags="seo-performance-marketing-graphic" d="M1000.919 742.707l-249.168 217.293-249.19-217.293h136.345c-45.905-281.99-306.457-501.345-602.954-454.706-13.041 2.030-18.324-15.518-5.506-19.971 368.986-128.416 794.079 82.585 855.577 474.677h114.896zM724.574 378.377c-38.306-35.415-81.15-66.27-127.544-92.076v-350.3h127.544v442.377zM405.713-64h127.544v319.063c-40.527-17.272-83.191-30.887-127.544-40.41v-278.652zM788.346-64h127.544v774.82h-3.22c-20.014-98.889-63.464-188.394-124.324-263.985v-510.836zM150.624 206.149c-43.312 6.335-85.965 16.496-127.544 30.77v-300.92h127.544v270.149zM214.396-64h127.544v267.928c-29.006-3.518-58.564-5.367-88.59-5.367-13.031 0-26.008 0.489-38.954 1.19v-263.751z" />
<glyph unicode="&#xe918;" glyph-name="people" data-tags="people-1" d="M846.894 840.043c-11.204 55.18-60.2 95.226-116.502 95.226s-105.3-40.050-116.5-95.226l-27.678-136.34c10.012 11.936 20.868 20.314 31.854 26.082l21.332 105.080c8.75 43.096 47.016 74.376 90.99 74.376s82.242-31.28 90.994-74.376l21.332-105.080c10.986-5.768 21.84-14.146 31.856-26.082l-27.678 136.34zM695.752 716.415c4.106-15.734 18.286-26.804 34.636-26.804 16.636 0 30.618 11.41 34.636 26.804-20.244 0-47.458 0-69.272 0zM1018.654 619.834c-10.594 17.56-33.424 23.208-50.986 12.61-59.25-35.752-42.314-25.532-69.448-41.906-5.61 15.83-12.128 34.344-17.612 50.304-14.646 42.622-40.596 75.568-85.876 75.568h-8.562c-4.338-26.88-27.696-47.476-55.78-47.476-27.942 0-51.426 20.498-55.78 47.476h-8.562c-32.718 0-58.072-17.238-75.63-51.292-7.78-15.088-8.254-19.418-30.782-82.822-0.062 12.422-0.346 69.294-0.388 77.258-0.256 50.582-41.612 91.732-92.194 91.732h-34.398c-8.010-21.394-59.656-159.362-70.176-187.467-10.524 28.112-62.168 166.070-70.176 187.467h-22.454c-38.364 0-73.322-19.478-93.512-52.104l-34.646-55.986-76.028 71.572c-15.668 14.746-40.322 14.004-55.070-1.664s-14.004-40.322 1.664-55.070l110.762-104.266c17.94-16.89 46.882-13.064 59.832 7.868 64.42 104.104 60.362 97.852 62.646 100.53 2.13 2.498 5.596 3.406 8.676 2.268s5.126-4.074 5.126-7.358c-0.008-395.489-0.414-27.018-0.414-652.832 0-25.82 20.93-46.75 46.75-46.75s46.75 20.93 46.75 46.75v373.687h20.186v-373.687c0-25.82 20.93-46.75 46.75-46.75s46.75 20.93 46.75 46.75c0 687.532-0.406 210.595-0.416 654.878 0 4.32 3.496 7.826 7.816 7.838s7.836-3.476 7.858-7.798c0.072-14.142 1.354-269.909 1.438-286.219 0.108-21.45 17.53-38.764 38.954-38.764 0.066 0 0.136 0.002 0.2 0 24.228-0.356 31.964 14.224 38.012 31.312 0 0 18.61 48.22 69.242 190.665l8.436-22.002c-31.866-52.666-52.808-110.224-62.294-171.306-1.536-9.9-40.628-261.601-42.76-275.309-5.258-33.846 21.006-64.332 55.084-64.332h43.986v-18.96c0-24.614 19.952-44.568 44.568-44.568 24.614 0 44.568 19.954 44.568 44.568v18.96h19.244v-18.96c0-24.614 19.952-44.568 44.57-44.568 24.614 0 44.568 19.954 44.568 44.568v18.96h43.986c34.21 0 60.332 30.542 55.084 64.332-2.442 15.716-40.352 259.805-42.76 275.309-9.486 61.082-30.428 118.642-62.294 171.306l8.436 22c3.692-10.39 7.668-21.526 11.928-33.424 0.006-0.018 0.016-0.034 0.022-0.052 7.964-22.122 34.166-31.274 54.132-19.224 11.716 7.070 97.226 58.666 108.362 65.388 17.562 10.604 23.208 33.43 12.612 50.992zM443.257 621.612h-36.162v16.994h36.162v-16.994zM659.145 606.702c7.436 10.882 19.76 17.412 32.94 17.434 0.024 0 0.046 0 0.072 0 11.85 0 22.53-4.916 30.17-12.798 3.306-3.41 6.050-7.368 8.062-11.734 2.012 4.368 4.758 8.324 8.062 11.734 7.64 7.882 18.32 12.798 30.17 12.798 0.022 0 0.046 0 0.068 0 13.184-0.022 25.512-6.538 32.95-17.424s9.026-24.734 4.262-37.028l-10.97-28.312h-129.088l-10.972 28.314c-4.762 12.288-3.164 26.136 4.274 37.016zM856.858 358.406l42.76-275.309c2.534-16.318-10.098-30.948-26.482-30.948-66.224 0-219.233 0-285.489 0-16.318 0-29.014 14.64-26.482 30.948l42.76 275.309c8.44 54.344 26.952 106.564 54.488 154.020h143.958c27.534-47.456 46.044-99.674 54.486-154.020zM730.39 894.895c-42.512 0-76.974-34.464-76.974-76.974 0-42.63 34.652-76.974 76.974-76.974 42.282 0 76.974 34.304 76.974 76.974 0 42.514-34.464 76.974-76.974 76.974zM443.203 857.767c0-44.59-36.148-80.738-80.738-80.738s-80.738 36.148-80.738 80.738c0 44.59 36.148 80.738 80.738 80.738s80.738-36.148 80.738-80.738zM398.547 769.957c-1.722 1.020-3.854 1.052-5.608 0.088l-30.466-16.75-30.466 16.75c-1.752 0.964-3.884 0.93-5.608-0.088-1.722-1.020-2.778-2.87-2.778-4.87v-38.156c0-2.002 1.058-3.854 2.778-4.87 1.722-1.020 3.854-1.052 5.608-0.088l30.466 16.75 30.466-16.75c1.754-0.964 3.886-0.928 5.608 0.088 1.722 1.020 2.778 2.87 2.778 4.87v38.156c0.002 2-1.056 3.852-2.778 4.87zM373.087 697.023c0-5.866-4.756-10.622-10.622-10.622s-10.622 4.756-10.622 10.622c0 5.866 4.756 10.622 10.622 10.622s10.622-4.756 10.622-10.622zM373.087 646.049c0-5.866-4.756-10.622-10.622-10.622s-10.622 4.756-10.622 10.622c0 5.866 4.756 10.622 10.622 10.622s10.622-4.756 10.622-10.622z" />
<glyph unicode="&#xe919;" glyph-name="arrow_rigth_o" data-tags="next_" d="M512-64c282.353 0 512 229.647 512 512s-229.647 512-512 512-512-229.647-512-512 229.647-512 512-512zM512 918.588c259.556 0 470.588-211.033 470.588-470.588s-211.033-470.588-470.588-470.588-470.588 211.033-470.588 470.588 211.033 470.588 470.588 470.588zM439.216 277.961c3.974-3.974 9.412-6.065 14.641-6.065s10.667 2.092 14.641 6.065l155.399 155.399c3.974 3.974 6.065 9.203 6.065 14.641s-2.092 10.667-6.065 14.641l-155.399 155.399c-8.157 8.157-21.124 8.157-29.281 0s-8.157-21.124 0-29.281l140.758-140.758-140.758-140.758c-7.948-8.157-7.948-21.333 0-29.281z" />
<glyph unicode="&#xe91a;" glyph-name="add" data-tags="add" d="M968.428 519.442h-384.988v384.99c0 17.538-23.815 55.566-71.442 55.566s-71.442-38.030-71.442-55.566v-384.992h-384.99c-17.536 0.002-55.566-23.813-55.566-71.438s38.030-71.442 55.566-71.442h384.992v-384.992c0-17.534 23.813-55.566 71.442-55.566s71.442 38.032 71.442 55.566v384.992h384.992c17.534 0 55.566 23.813 55.566 71.442s-38.036 71.44-55.572 71.44z" />
<glyph unicode="&#xe91b;" glyph-name="youtube_play" data-tags="youtube" d="M1024.001 653.225c0 84.731-68.551 153.282-152.855 153.282h-718.291c-84.731 0-152.855-68.551-152.855-153.282v-410.45c0-84.731 68.551-153.282 152.855-153.282h717.865c84.731 0 152.855 68.551 152.855 153.282l0.426 410.45zM409.176 274.709v385.756l292.511-192.878-292.511-192.878z" />
<glyph unicode="&#xe91c;" glyph-name="minus" data-tags="remove" d="M968.432 519.443h-912.866c-17.538 0-55.566-23.815-55.566-71.443s38.030-71.443 55.566-71.443h912.87c17.532 0 55.564 23.815 55.564 71.443s-38.032 71.443-55.568 71.443z" />
<glyph unicode="&#xe91d;" glyph-name="quality" data-tags="quality" d="M453.865 160.104c-39.92-36.89-95.134-45.152-144.106-21.572-17.704 8.526-32.644 20.298-44.34 34.398l-66.682-147.488c-3.034-6.71 0.354-11.768 1.95-13.63 1.596-1.86 6.078-5.978 13.17-4.006l48.544 13.512c5.532 1.538 11.124 2.28 16.638 2.28 23.262 0 45.156-13.166 55.698-34.984l21.924-45.37c3.202-6.63 9.208-7.292 11.708-7.242 2.452 0.032 8.484 0.828 11.516 7.538l106.066 234.608c-11.654-3.354-22.69-9.36-32.086-18.044zM825.263 25.442l-66.682 147.488c-11.696-14.102-26.636-25.874-44.34-34.398-48.974-23.58-104.186-15.318-144.106 21.572-9.396 8.684-20.432 14.69-32.090 18.044l106.066-234.608c3.034-6.712 9.066-7.506 11.516-7.538 2.5-0.050 8.506 0.612 11.708 7.242l21.924 45.37c10.54 21.818 32.436 34.984 55.698 34.984 5.514 0 11.108-0.742 16.638-2.28l48.544-13.512c7.092-1.974 11.576 2.144 13.17 4.006 1.6 1.864 4.988 6.922 1.954 13.63zM877.643 544.418c-55.38 37.92-72.564 113.21-39.12 171.404 20.102 34.982 9.64 69.55-6.854 90.236-16.496 20.68-47.872 38.57-86.446 26.76-64.168-19.654-133.754 13.85-158.402 76.282-14.816 37.528-48.366 50.9-74.82 50.9s-60.004-13.372-74.82-50.902c-24.648-62.434-94.228-95.934-158.402-76.282-38.578 11.808-69.948-6.078-86.446-26.76-16.494-20.686-26.956-55.25-6.854-90.236 33.444-58.192 16.26-133.484-39.12-171.404-33.292-22.798-38.862-58.48-32.978-84.272s26.388-55.522 66.274-61.616c66.348-10.136 114.496-70.512 109.618-137.454-2.936-40.242 21.49-66.846 45.324-78.326 23.836-11.478 59.864-13.99 89.496 13.396 24.644 22.774 56.282 34.166 87.906 34.166 31.636 0 63.256-11.386 87.904-34.166 29.636-27.388 65.666-24.876 89.5-13.396 23.834 11.478 48.258 38.082 45.324 78.324-4.878 66.942 43.27 127.318 109.618 137.456 39.886 6.094 60.386 35.826 66.274 61.616 5.886 25.796 0.312 61.478-32.976 84.274zM512.001 288.154c-145.15 0-263.238 118.088-263.238 263.238s118.086 263.24 263.238 263.24c145.152 0 263.238-118.088 263.238-263.238-0.002-145.15-118.088-263.24-263.238-263.24zM511.999 765.55c-118.088 0-214.158-96.072-214.158-214.158s96.068-214.158 214.158-214.158 214.158 96.072 214.158 214.158-96.070 214.158-214.158 214.158zM621.749 572.156l-133.284-97.35c-4.23-3.090-9.306-4.724-14.474-4.724-1.332 0-2.67 0.108-4.002 0.328-6.498 1.074-12.294 4.716-16.082 10.108l-39.868 56.764c-7.79 11.094-5.112 26.4 5.978 34.19 11.092 7.79 26.396 5.114 34.188-5.978l25.5-36.308 113.096 82.604c10.946 7.99 26.3 5.606 34.292-5.342 7.994-10.944 5.6-26.296-5.344-34.292z" />
<glyph unicode="&#xe91e;" glyph-name="controls" data-tags="controls-1" d="M544.427 236.279v-60.492h-529.303c-8.363 0-15.123-6.776-15.123-15.123s6.76-15.123 15.123-15.123h529.303v-60.492c0-8.347 6.76-15.123 15.123-15.123h181.476c8.363 0 15.123 6.776 15.123 15.123v60.492h45.369c8.363 0 15.123 6.776 15.123 15.123s-6.76 15.123-15.123 15.123h-45.369v60.492c0 8.347-6.76 15.123-15.123 15.123h-181.476c-8.363 0-15.123-6.776-15.123-15.123zM302.459 523.615v-60.492h-287.336c-8.363 0-15.123-6.776-15.123-15.123s6.76-15.123 15.123-15.123h287.336v-60.492c0-8.347 6.76-15.123 15.123-15.123h181.476c8.363 0 15.123 6.776 15.123 15.123v60.492h287.336c8.363 0 15.123 6.776 15.123 15.123s-6.76 15.123-15.123 15.123h-287.336v60.492c0 8.347-6.76 15.123-15.123 15.123h-181.476c-8.363 0-15.123-6.776-15.123-15.123zM60.492 810.951v-60.492h-45.369c-8.363 0-15.123-6.776-15.123-15.123s6.76-15.123 15.123-15.123h45.369v-60.492c0-8.347 6.76-15.123 15.123-15.123h181.476c8.363 0 15.123 6.776 15.123 15.123v60.492h529.303c8.363 0 15.123 6.776 15.123 15.123s-6.76 15.123-15.123 15.123h-529.303v60.492c0 8.347-6.76 15.123-15.123 15.123h-181.476c-8.363 0-15.123-6.776-15.123-15.123z" />
<glyph unicode="&#xe91f;" glyph-name="badge" data-tags="badge" d="M985.737 267.984c-19.54 1.471-60.090-21.22-71.015-27.103-39.5-20.59-94.337-52.946-130.264-78.789-2.521-1.681-5.883-3.992-8.404-5.673-16.178-10.925-33.407-18.069-52.316-22.271-104.632-23.111-257.377-25.633-257.377-25.633l-8.824-0.42c-6.723-0.42-12.606 4.412-13.657 11.136-1.051 7.354 4.202 14.287 11.766 14.917l226.912 22.481c25.002 2.731 44.962 27.103 42.231 54.417s-26.893 47.273-51.896 44.332l-201.91 2.521c-13.657 0.21-35.718 3.782-48.954 7.774-130.054 39.5-203.381 2.521-242.46-14.707-8.614 14.917-25.212 24.582-43.702 23.322l-86.983-6.093c-28.994-2.101-50.845-27.103-48.744-56.098l13.867-200.439c2.101-28.994 27.103-50.845 56.098-48.744l86.983 6.093c18.279 1.261 33.407 13.026 39.92 28.994l382.179-17.018c42.651-4.622 82.571 0.63 119.969 21.010l10.925 5.883 289.103 175.437c14.287 8.614 24.372 23.532 24.792 40.13 0.63 20.17-10.715 42.441-38.239 44.542zM101.83 10.397c-16.388 0-29.625 13.237-29.625 29.625s13.237 29.625 29.625 29.625 29.625-13.237 29.625-29.625c0-16.178-13.237-29.625-29.625-29.625zM766.388 236.048c2.101-6.513 3.782-13.237 4.412-20.38 0.63-5.673 0.63-11.346 0.21-16.808 2.941 2.101 6.093 4.412 9.034 6.513 29.415 21.431 89.924 55.467 123.961 73.326 10.295 5.463 21.22 10.715 32.776 15.127-14.917 10.295-30.885 10.715-47.273 4.202-32.566-13.237-92.236-43.281-122.701-60.51 0-0.63-0.21-1.051-0.42-1.471zM811.561 321.561c-19.96-8.194-64.922-23.322-84.882-34.247 8.614-5.463 16.178-12.186 22.691-20.17 1.261 0.84 2.521 1.891 3.992 2.731l14.497 8.404c21.431 12.186 66.813 28.784 90.345 39.71-14.917 9.875-30.675 10.295-46.643 3.572zM310.043 640.078c2.941-4.202 2.731-7.144 0-11.346-12.816-19.33-25.423-38.659-37.609-58.199-11.766-18.909-4.412-40.76 16.388-48.744 21.641-8.404 43.071-16.598 64.712-24.582 4.622-1.681 6.093-3.992 6.303-8.614 1.051-21.851 3.362-43.702 3.152-65.552-0.21-22.271 19.33-41.811 45.803-33.407 21.010 6.723 42.651 11.556 63.872 17.649 4.202 1.261 6.723 0.42 9.665-3.152 14.077-17.649 28.364-35.297 42.861-52.736 15.758-19.119 38.449-19.119 53.997 0 14.287 17.649 28.364 35.087 42.441 52.946 2.731 3.362 5.042 4.622 9.455 3.362 22.061-6.093 44.122-11.976 66.393-17.859 22.691-6.093 41.811 7.774 43.071 31.095 1.261 22.901 2.521 45.593 3.362 68.494 0.21 5.253 2.521 7.354 6.933 9.034 21.010 7.774 41.811 15.968 62.611 24.162 22.481 8.824 29.625 30.675 16.598 50.845-12.396 18.909-24.582 38.029-37.188 56.728-2.941 4.202-2.731 7.144 0 11.346 12.186 18.489 24.162 36.978 36.138 55.678 14.077 21.851 6.723 43.702-17.649 52.526-20.8 7.564-41.39 15.758-61.981 23.322-4.412 1.681-6.093 3.992-6.303 8.824-1.051 22.691-2.311 45.172-3.572 67.653-1.261 23.952-20.17 37.609-43.281 31.516-21.851-5.883-43.702-11.556-65.342-17.859-5.042-1.471-7.564-0.21-10.715 3.572-13.867 17.439-28.154 34.877-42.231 52.106-15.338 19.119-38.449 19.119-53.997 0-13.867-17.229-27.944-34.247-41.39-51.896-3.782-4.832-7.144-5.673-12.606-3.992-21.22 6.093-42.651 11.556-57.989 15.758-29.835 7.144-47.273-5.042-48.954-29.415-1.681-22.901-2.521-45.593-3.362-68.494-0.21-4.832-1.891-6.933-6.093-8.614-21.431-7.984-42.861-16.178-64.082-24.582-22.061-8.824-28.994-30.465-15.968-50.425 11.556-19.33 23.952-38.239 36.558-57.148zM470.772 543.64c2.101 7.564 4.202 15.127 6.513 22.691 2.731 8.824 5.042 9.875 13.026 5.673 13.657-7.144 28.364-11.136 43.491-13.026 9.875-1.261 19.54-0.21 28.574 3.782 17.018 7.354 19.75 27.103 5.253 38.869-4.832 3.992-10.505 6.933-16.178 9.455-14.917 6.513-30.465 11.556-44.542 19.96-22.901 13.657-37.398 32.356-35.508 60.3 1.891 31.516 19.75 51.055 48.534 61.56 11.976 4.412 11.976 4.202 11.976 16.598 0 4.202 0 8.404 0 12.606 0.21 9.455 1.891 10.925 11.136 11.136 2.941 0 5.673 0 8.614 0 19.75 0 19.75 0 19.96-19.75 0-14.077 0-14.077 14.077-16.388 10.715-1.681 21.010-4.832 30.885-9.245 5.463-2.311 7.564-6.303 5.883-11.976-2.521-8.614-4.832-17.229-7.564-25.633-2.521-7.984-5.253-9.245-12.816-5.463-15.548 7.564-31.726 10.715-48.954 9.665-4.412-0.21-8.824-0.84-13.026-2.731-14.707-6.513-17.229-22.691-4.622-32.776 6.303-5.042 13.657-8.824 21.22-11.976 13.026-5.463 26.263-10.715 38.659-17.439 39.71-21.851 50.215-71.645 22.481-105.682-10.085-12.186-23.111-20.59-38.449-24.792-6.723-1.891-9.665-5.253-9.455-12.186 0.21-6.723 0-13.657 0-20.38 0-6.093-3.152-9.455-9.034-9.455-7.354-0.21-14.707-0.21-22.061 0-6.513 0.21-9.455 3.782-9.455 10.085 0 5.042 0 9.875-0.21 14.917-0.21 10.925-0.42 11.556-11.136 13.026-13.447 2.101-26.893 5.253-39.289 11.136-9.875 4.832-10.715 7.354-7.984 17.439z" />
<glyph unicode="&#xe920;" glyph-name="arrow_left_o" data-tags="arrows" d="M512-64c282.353 0 512 229.647 512 512s-229.647 512-512 512-512-229.647-512-512 229.647-512 512-512zM512 918.588c259.556 0 470.588-211.033 470.588-470.588s-211.033-470.588-470.588-470.588-470.588 211.033-470.588 470.588 211.033 470.588 470.588 470.588zM555.294 277.961c3.974-3.974 9.412-6.065 14.641-6.065s10.667 2.092 14.641 6.065c8.157 8.157 8.157 21.124 0 29.281l-140.758 140.758 140.758 140.758c8.157 8.157 8.157 21.124 0 29.281s-21.124 8.157-29.281 0l-155.399-155.399c-8.157-8.157-8.157-21.124 0-29.281l155.399-155.399z" />
<glyph unicode="&#xe921;" glyph-name="arrow_up" data-tags="arrow-point-to-up" d="M511.887 771.973c18.355 0 36.709-7.024 50.758-21.073l440.282-440.282c28.098-28.098 28.098-73.418 0-101.517s-73.418-28.098-101.29 0l-389.75 389.75-389.524-389.524c-28.098-28.098-73.418-28.098-101.29 0-28.098 28.098-28.098 73.418 0 101.29l440.282 440.282c13.823 14.049 32.177 21.073 50.532 21.073z" />
<glyph unicode="&#xe922;" glyph-name="arrow_right" data-tags="arrow-point-to-right" d="M814.858 397.307l-440.304-440.29c-28.009-28.022-73.42-28.022-101.415 0-27.997 27.997-27.997 73.406 0 101.401l389.601 389.589-389.589 389.576c-27.997 28.009-27.997 73.413 0 101.41 27.997 28.009 73.406 28.009 101.415 0l440.304-440.297c13.999-14.005 20.99-32.342 20.99-50.687 0-18.354-7.005-36.704-21.001-50.703z" />
<glyph unicode="&#xe923;" glyph-name="arrow_down" data-tags="arrow-point-to-down" d="M461.344 145.042l-440.379 440.379c-28.104 27.878-28.104 73.208 0 101.312 27.878 28.104 73.208 28.104 101.312 0l389.61-389.61 389.836 389.836c27.878 28.104 73.208 28.104 101.312 0s28.104-73.434 0-101.539l-440.379-440.379c-14.052-14.052-32.411-21.078-50.769-21.078s-36.717 7.026-50.543 21.078z" />
<glyph unicode="&#xe924;" glyph-name="arrow_left" data-tags="arrow-point-to-NEXT" d="M188.14 447.887c0 18.355 7.024 36.709 21.073 50.758l440.282 440.282c28.098 28.098 73.418 28.098 101.29 0 28.098-28.098 28.098-73.418 0-101.29l-389.524-389.75 389.524-389.524c28.098-28.098 28.098-73.418 0-101.29-28.098-28.098-73.418-28.098-101.517 0l-440.055 440.282c-14.049 13.823-21.073 32.177-21.073 50.532z" />
<glyph unicode="&#xe925;" glyph-name="youtube" data-tags="youtube" d="M807.79 210.663h-56.341v32.396c0 14.086 11.268 26.762 26.762 26.762h4.225c14.086 0 26.762-11.268 26.762-26.762l-1.408-32.396zM596.511 281.090c-14.086 0-25.354-9.86-25.354-21.128v-159.164c0-11.268 11.268-21.128 25.354-21.128s25.354 9.86 25.354 21.128v159.164c0 11.268-11.268 21.128-25.354 21.128zM938.784 369.828v-301.425c0-71.835-63.384-132.402-139.444-132.402h-574.68c-77.469 0-139.444 59.158-139.444 132.402v301.425c0 71.835 63.384 132.402 139.444 132.402h574.68c76.061-1.408 139.444-60.567 139.444-132.402zM262.689 34.597v318.327h71.835v46.481h-190.152v-46.481h59.158v-318.327h59.158zM476.786 305.035h-59.158v-170.433c0-23.945 1.408-36.622 0-40.848-4.225-12.676-26.762-26.762-35.213-1.408-1.408 4.225 0 18.311 0 40.848v170.433h-59.158v-169.023c0-25.354 0-45.073 0-53.524 1.408-15.494 1.408-33.805 15.494-43.664 26.762-19.719 77.469 2.817 90.146 30.988v-35.213h47.89v271.846zM666.938 110.658v140.853c0 53.524-40.848 85.92-95.78 42.256v105.64h-59.158v-363.401l49.299 1.408 4.225 22.537c61.975-56.341 101.415-18.311 101.415 50.707zM851.455 128.969h-45.073c0-1.408 0-4.225 0-5.634v-25.354c0-12.676-11.268-23.945-23.945-23.945h-8.451c-12.676 0-23.945 11.268-23.945 23.945v64.792h101.415v38.030c0 28.17-1.408 56.341-2.817 71.835-7.043 50.707-78.878 59.158-114.091 32.396-11.268-8.451-19.719-18.311-25.354-33.805-5.634-14.086-7.043-33.805-7.043-59.158v-84.512c0-138.036 170.433-118.317 149.304 1.408zM623.273 586.74c2.817-7.043 8.451-14.086 14.086-18.311 7.043-4.225 14.086-7.043 23.945-7.043 8.451 0 15.494 2.817 22.537 7.043s12.676 11.268 16.902 21.128l-1.408-23.945h66.201v281.706h-52.116v-218.322c0-11.268-9.86-21.128-21.128-21.128s-21.128 9.86-21.128 21.128v218.322h-54.932v-190.152c0-23.945 0-40.848 1.408-47.89s2.817-14.086 5.634-22.537zM423.262 745.905c0 26.762 2.817 47.89 7.043 63.384s12.676 26.762 23.945 36.622c11.268 9.86 26.762 14.086 45.073 14.086 15.494 0 28.17-2.817 39.438-8.451s19.719-14.086 25.354-22.537c5.634-9.86 9.86-19.719 12.676-29.579s2.817-25.354 2.817-46.481v-71.835c0-26.762-1.408-45.073-2.817-57.75s-5.634-23.945-12.676-33.805c-7.043-9.86-15.494-18.311-25.354-23.945s-22.537-7.043-35.213-7.043c-15.494 0-28.17 1.408-38.030 7.043-9.86 4.225-18.311 11.268-23.945 19.719s-9.86 19.719-12.676 30.988c-2.817 12.676-4.225 30.988-4.225 54.932l-1.408 74.653zM475.377 634.631c0-15.494 11.268-29.579 26.762-29.579 14.086 0 26.762 12.676 26.762 29.579v149.304c0 15.494-11.268 29.579-26.762 29.579-14.086 0-26.762-12.676-26.762-29.579v-149.304zM292.269 558.57h61.975v215.505l73.243 184.517h-67.61l-39.438-136.628-39.438 138.036h-67.61l78.878-185.926v-215.505z" />
<glyph unicode="&#xe926;" glyph-name="linkedin" data-tags="linkedin" d="M1.663-26.596h204.467v679.897h-204.467v-679.897zM797.923 676.573c-99.74 0-187.845-36.571-251.014-116.364v94.753h-204.467v-683.221h204.467v369.040c0 78.13 71.481 154.597 161.247 154.597s111.377-76.468 111.377-152.935v-370.702h204.467v385.662c0 269.299-128 319.17-226.078 319.17zM103.065 721.456c56.52 0 101.402 46.545 101.402 101.402 0 56.52-46.545 101.402-101.402 101.402-56.52 0-101.402-46.545-101.402-101.402-1.662-56.52 44.883-101.402 101.402-101.402z" />
<glyph unicode="&#xe927;" glyph-name="vimeo" data-tags="vimeo" d="M869.497 886.886c-141.573 4.619-237.377-74.796-287.543-238.336 25.836 10.64 50.942 16.010 75.429 16.010 51.624 0 74.474-28.973 68.375-87.072-3.026-35.183-25.833-86.376-68.375-153.56-42.71-67.296-74.611-100.885-95.804-100.885-27.515 0-52.559 51.988-75.426 155.838-7.669 30.585-21.382 108.467-41.017 233.84-18.408 116.123-67.052 170.38-146.147 162.754-33.46-3.076-83.582-33.717-150.477-91.708-48.804-44.332-98.252-88.675-148.512-132.974l47.886-61.824c45.702 32.11 72.438 48.089 79.863 48.089 35.046 0 67.774-54.974 98.228-164.908 27.299-100.965 54.83-201.794 82.262-302.612 40.856-110.015 91.223-165.044 150.468-165.044 95.826 0 213.153 90.124 351.521 270.438 133.859 172.623 202.966 308.626 207.628 408.041 6.144 132.86-43.304 200.896-148.356 203.913z" />
<glyph unicode="&#xe928;" glyph-name="soundcloud" data-tags="soundcloud" d="M15.515 289.322c0-2.821-1.41-4.231-4.231-4.231s-4.231 1.41-4.231 4.231l-7.053 56.419 7.053 56.419c0 2.821 1.41 4.231 4.231 4.231 1.41 0 4.231-1.41 4.231-4.231l8.463-56.419-8.463-56.419zM53.598 254.061c0-2.821-1.41-4.231-4.231-4.231-1.41 0-4.231 1.41-4.231 4.231l-9.874 90.27 9.874 91.68c0 2.821 2.821 4.231 4.231 4.231 2.821 0 4.231-1.41 4.231-4.231l11.284-91.68-11.284-90.27zM94.502 239.956c0-2.821-2.821-5.641-5.641-5.641s-4.231 1.41-5.641 5.641l-9.874 104.374 9.874 108.606c0 2.821 2.821 5.641 5.641 5.641s4.231-1.41 5.641-5.641l11.284-108.606-11.284-104.374zM136.816 235.725c0-2.821-2.821-5.641-5.641-5.641s-5.641 2.821-5.641 5.641l-8.463 108.606 8.463 111.427c0 2.821 2.821 5.641 5.641 5.641s5.641-2.821 5.641-5.641l9.874-111.427-9.874-108.606zM177.72 235.725c0-4.231-2.821-7.053-7.053-7.053s-7.053 2.821-7.053 7.053l-8.463 108.606 8.463 104.374c0 4.231 2.821 7.053 7.053 7.053s7.053-2.821 7.053-7.053l9.874-104.374-9.874-108.606zM220.033 235.725v0c0-4.231-4.231-7.053-8.463-7.053s-7.053 2.821-8.463 7.053l-8.463 108.606 8.463 169.256c0 4.231 4.231 7.053 8.463 7.053s7.053-2.821 8.463-7.053l8.463-169.256-8.463-108.606zM262.347 235.725v0c0-4.231-4.231-8.463-8.463-8.463s-8.463 4.231-8.463 8.463l-7.053 108.606 7.053 207.339c0 4.231 4.231 8.463 8.463 8.463s8.463-4.231 8.463-8.463l8.463-207.339-8.463-108.606zM306.072 237.136v0c0-5.641-4.231-9.874-9.874-9.874s-9.874 4.231-9.874 9.874l-7.053 107.196 7.053 225.675c0 5.641 4.231 9.874 9.874 9.874s9.874-4.231 9.874-9.874l8.463-225.675-8.463-107.196zM348.385 237.136c0-5.641-4.231-9.874-9.874-9.874s-9.874 4.231-9.874 9.874l-7.053 107.196 7.053 232.727c0 5.641 4.231 9.874 9.874 9.874s9.874-4.231 9.874-9.874l7.053-232.727-7.053-107.196zM392.111 238.546v0c0-5.641-5.641-11.284-11.284-11.284s-11.284 5.641-11.284 11.284l-5.641 105.785 5.641 227.085c0 5.641 5.641 11.284 11.284 11.284s11.284-4.231 11.284-11.284l7.053-227.085-7.053-105.785zM435.835 239.956v0c0-7.053-5.641-11.284-12.694-11.284s-11.284 5.641-12.694 11.284l-5.641 105.785 5.641 218.622c0 7.053 5.641 12.694 12.694 12.694s11.284-5.641 12.694-12.694l5.641-218.622-5.641-105.785zM479.56 249.83v-9.874c0-4.231-1.41-7.053-4.231-9.874s-5.641-4.231-8.463-4.231c-4.231 0-7.053 1.41-9.874 4.231-1.41 1.41-2.821 4.231-2.821 7.053v0l-5.641 104.374 4.231 256.705v2.821c0 4.231 2.821 8.463 5.641 11.284 1.41 1.41 4.231 1.41 7.053 1.41s5.641-1.41 7.053-2.821c2.821-2.821 5.641-5.641 5.641-11.284l5.641-259.526-4.231-90.27zM523.284 241.367v0c0-7.053-5.641-14.105-14.105-14.105-7.053 0-14.105 5.641-14.105 14.105l-2.821 50.777-2.821 52.188 5.641 282.094v1.41c0 4.231 1.41 8.463 5.641 11.284 2.821 1.41 5.641 2.821 8.463 2.821s5.641-1.41 7.053-1.41c4.231-2.821 7.053-7.053 7.053-11.284l5.641-283.504-5.641-104.374zM898.468 227.262c0 0-348.385 0-348.385 0-7.053 1.41-14.105 7.053-14.105 14.105v399.162c0 7.053 2.821 11.284 12.694 14.105 23.978 9.874 52.188 15.515 80.397 15.515 115.658 0 211.57-88.859 221.444-201.697 15.515 5.641 31.030 9.874 47.956 9.874 69.113 0 125.532-56.419 125.532-125.532s-56.419-125.532-125.532-125.532v0z" />
<glyph unicode="&#xe929;" glyph-name="check_circle" data-tags="checked (2)" d="M512 960c-283.927 0-512-228.073-512-512s228.073-512 512-512 512 228.073 512 512-228.073 512-512 512zM807.564 608.582v0l-372.364-386.327c-4.655-4.655-9.309-6.982-16.291-6.982s-13.964 2.327-16.291 6.982l-181.527 195.491-4.655 4.655c-4.655 4.655-6.982 11.636-6.982 16.291s2.327 11.636 6.982 16.291l32.582 32.582c9.309 9.309 23.273 9.309 32.582 0l2.327-2.327 128-137.309c4.655-4.655 11.636-4.655 16.291 0l311.855 323.491h2.327c9.309 9.309 23.273 9.309 32.582 0l32.582-32.582c9.309-6.982 9.309-20.945 0-30.255z" />
<glyph unicode="&#xe92a;" glyph-name="remove_circle" data-tags="cerrar" d="M874.21 810.21c-199.71 199.71-524.681 199.73-724.412 0s-199.71-524.681 0-724.412 524.681-199.73 724.412 0c199.71 199.73 199.71 524.699 0 724.412zM714 246.010c-15.386-15.386-40.329-15.386-55.715 0l-146.281 146.281-153.235-153.235c-15.386-15.386-40.329-15.386-55.715 0s-15.386 40.329 0 55.715l153.235 153.235-146.281 146.281c-15.386 15.386-15.386 40.347 0 55.715 15.386 15.386 40.329 15.386 55.715 0l146.281-146.281 139.308 139.308c15.386 15.386 40.329 15.386 55.715 0s15.386-40.329 0-55.715l-139.308-139.308 146.281-146.281c15.386-15.386 15.386-40.329 0-55.715z" />
<glyph unicode="&#xe92b;" glyph-name="whatsapp" data-tags="whatsapp" d="M510.256 960c-280.762 0-510.256-229.493-510.256-508.512 0-91.728 24.763-179.967 70.452-259.488l-70.452-256 261.232 70.452c76.033-42.201 160.785-70.452 249.024-70.452 280.762 0 513.744 236.469 513.744 515.488s-232.981 508.512-513.744 508.512zM776.719 319.304l-5.232-24.763c-5.232-26.506-21.275-51.27-46.038-66.965-31.738-19.532-70.452-28.251-119.978-13.951-155.204 44.294-243.793 146.485-289.483 209.962-46.038 63.477-65.22 126.953-53.014 179.967 6.976 35.226 33.482 61.733 49.526 76.033 6.976 6.976 17.787 10.463 28.251 10.463l33.482-1.744c6.976 0 12.207-5.232 13.951-10.463l51.27-114.747c1.744-5.232 0-12.207-3.487-17.787l-42.201-47.782c-3.487-3.487-3.487-8.719-1.744-13.951 54.757-106.027 155.204-148.229 185.199-159.041 5.232-1.744 10.463 0 13.951 3.487l44.294 56.501c5.232 6.976 13.951 8.719 21.275 5.232l111.258-51.27c6.976-3.487 10.463-12.207 8.719-19.182z" />
<glyph unicode="&#xe92c;" glyph-name="caret_down" data-tags="caret_down" horiz-adv-x="777" d="M777.002 617.97c0-12.899-5.312-25.040-14.417-34.145l-339.94-339.94c-9.105-9.105-21.246-14.417-34.145-14.417s-25.040 5.312-34.145 14.417l-339.94 339.94c-9.105 9.105-14.417 21.246-14.417 34.145 0 26.558 22.004 48.562 48.562 48.562h679.88c26.558 0 48.562-22.004 48.562-48.562z" />
<glyph unicode="&#xe92d;" glyph-name="shop, store" data-tags="shop, store" d="M1004.8 601.6l-96 127.936c-3.744 5.024-8.192 9.376-12.8 13.536v152.928c0 35.328-28.672 64-64 64h-640c-35.36 0-64-28.672-64-64v-152.96c-4.608-4.128-9.056-8.448-12.8-13.44l-95.968-127.968c-12.416-16.512-19.232-36.96-19.232-57.632v-32c0-52.928 43.072-96 96-96v0-416c0-35.328 28.672-64 64-64h704c35.328 0 64 28.672 64 64v416c52.928 0 96 43.072 96 96v32c0 20.672-6.816 41.12-19.2 57.6zM832 896v-128h-640v128h640zM326.176 480h-134.048l128 224h70.048l-64-224zM423.488 704h72.512v-224h-136.512l64 224zM528 704h72.512l64-224h-136.512v224zM633.76 704h70.048l128-224h-134.048l-64 224zM64 512v32c0 6.944 2.24 13.664 6.4 19.2l96 128c6.048 8.064 15.52 12.8 25.6 12.8h91.264l-128-224h-59.264c-17.664 0-32 14.304-32 32zM640 0h-240v320h240v-320zM864 0h-192v320c0 17.696-14.368 32-32 32h-240c-17.664 0-32-14.304-32-32v-320h-208v416h704v-416zM960 512c0-17.696-14.304-32-32-32h-59.328l-128 224h91.328c10.048 0 19.552-4.736 25.568-12.8l96-128c4.192-5.536 6.432-12.256 6.432-19.2v-32z" />
<glyph unicode="&#xe92e;" glyph-name="remove" data-tags="ICONOS_ISABEL-12" d="M978.917 745.788l-303.423-303.423 303.423-303.423c45.082-45.082 45.082-118.266 0-163.495-22.541-22.541-52.107-33.811-81.674-33.811s-59.134 11.271-81.674 33.811l-303.57 303.57-303.423-303.57c-22.541-22.541-52.107-33.811-81.674-33.811s-59.134 11.271-81.674 33.811c-45.082 45.082-45.082 118.266 0 163.495l303.277 303.423-303.423 303.423c-45.082 45.082-45.082 118.266 0 163.348s118.266 45.082 163.348 0l303.57-303.277 303.423 303.423c45.082 45.082 118.266 45.082 163.348 0 45.229-45.229 45.229-118.266 0.146-163.495z" />
<glyph unicode="&#xe92f;" glyph-name="truck" data-tags="truck, transport, transaction, shipping" d="M794.624 593.76c-5.952 8.896-15.936 14.24-26.624 14.24h-32c-17.696 0-32-14.304-32-32v-192c0-17.696 14.304-32 32-32h128c17.696 0 32 14.304 32 32v48c0 6.304-1.888 12.512-5.376 17.76l-96 144zM864 384h-128v192h32l96-144v-48zM1007.872 469.248l-128 192c-17.856 26.784-47.744 42.752-79.872 42.752h-128v64c0 52.928-43.072 96-96 96h-480c-52.928 0-96-43.072-96-96v-352c0-52.928 43.072-96 96-96v0-96c0-52.928 43.072-96 96-96h36.544c14.304-55.072 64-96 123.488-96 59.424 0 109.12 40.928 123.424 96h169.024c14.304-55.072 64-96 123.488-96 59.424 0 109.12 40.928 123.424 96h36.608c52.928 0 96 43.072 96 96v192c0 19.008-5.568 37.44-16.128 53.248zM96 384c-17.664 0-32 14.304-32 32v352c0 17.696 14.336 32 32 32h480c17.696 0 32-14.304 32-32v-352c0-17.696-14.304-32-32-32h-480zM352.032 96c-35.36 0-64 28.672-64 64s28.64 64 64 64c35.328 0 64-28.672 64-64s-28.704-64-64-64zM768 96c-35.36 0-64 28.672-64 64s28.64 64 64 64c35.328 0 64-28.672 64-64s-28.672-64-64-64zM960 224c0-17.696-14.304-32-32-32h-36.576c-14.304 55.072-64 96-123.424 96-59.488 0-109.184-40.928-123.488-96h-169.024c-14.304 55.072-64 96-123.424 96-59.488 0-109.184-40.928-123.488-96h-36.576c-17.664 0-32 14.304-32 32v96h416c52.928 0 96 43.072 96 96v224h128c10.688 0 20.672-5.344 26.624-14.24l128-192c3.488-5.248 5.376-11.456 5.376-17.76v-192z" />
<glyph unicode="&#xe93b;" glyph-name="whatsapp_o" data-tags="whatsapp (2)" d="M757.942 371.663c-1.993 0.957-76.579 37.685-89.834 42.456-5.411 1.943-11.207 3.84-17.373 3.84-10.071 0-18.532-5.020-25.123-14.878-7.45-11.074-30.006-37.439-36.974-45.315-0.91-1.040-2.152-2.282-2.896-2.282-0.667 0-12.211 4.754-15.705 6.271-80.010 34.755-140.742 118.334-149.069 132.428-1.189 2.026-1.239 2.946-1.249 2.946 0.293 1.073 2.983 3.771 4.371 5.162 4.062 4.019 8.464 9.318 12.723 14.443 2.016 2.428 4.035 4.86 6.019 7.152 6.179 7.189 8.929 12.769 12.117 19.233l1.671 3.358c7.786 15.469 1.136 28.524-1.013 32.739-1.763 3.528-33.258 79.536-36.606 87.522-8.052 19.269-18.691 28.241-33.476 28.241-1.372 0 0 0-5.753-0.243-7.006-0.296-45.156-5.318-62.023-15.951-17.887-11.277-48.148-47.225-48.148-110.444 0-56.898 36.107-110.62 51.609-131.052 0.386-0.515 1.093-1.562 2.119-3.062 59.37-86.704 133.381-150.96 208.409-180.932 72.231-28.853 106.435-32.188 125.881-32.188 0.003 0 0.003 0 0.003 0 8.172 0 14.712 0.641 20.482 1.209l3.661 0.349c24.953 2.212 79.789 30.627 92.262 65.288 9.825 27.302 12.417 57.131 5.88 67.956-4.478 7.361-12.194 11.064-21.964 15.755zM521.534 959.548c-277.086 0-502.513-223.732-502.513-498.737 0-88.946 23.804-176.013 68.896-252.213l-86.309-254.595c-1.608-4.747-0.412-9.995 3.099-13.569 2.535-2.588 5.973-3.982 9.484-3.982 1.345 0 2.701 0.203 4.022 0.624l265.474 84.359c72.647-38.815 154.753-59.303 237.85-59.303 277.060-0.003 502.463 223.706 502.463 498.68 0 275.004-225.403 498.737-502.466 498.737zM521.534 66.019c-78.191 0-153.923 22.578-219.023 65.295-2.189 1.439-4.73 2.176-7.288 2.176-1.352 0-2.708-0.206-4.026-0.624l-132.986-42.273 42.93 126.655c1.389 4.099 0.694 8.62-1.863 12.114-49.573 67.737-75.779 147.768-75.779 231.449 0 217.717 178.557 394.845 398.032 394.845 219.447 0 397.985-177.129 397.985-394.845 0.003-217.691-178.53-394.792-397.982-394.792z" />
<glyph unicode="" glyph-name="whatsapp_o" data-tags="whatsapp (2)" d="M757.942 371.663c-1.993 0.957-76.579 37.685-89.834 42.456-5.411 1.943-11.207 3.84-17.373 3.84-10.071 0-18.532-5.020-25.123-14.878-7.45-11.074-30.006-37.439-36.974-45.315-0.91-1.040-2.152-2.282-2.896-2.282-0.667 0-12.211 4.754-15.705 6.271-80.010 34.755-140.742 118.334-149.069 132.428-1.189 2.026-1.239 2.946-1.249 2.946 0.293 1.073 2.983 3.771 4.371 5.162 4.062 4.019 8.464 9.318 12.723 14.443 2.016 2.428 4.035 4.86 6.019 7.152 6.179 7.189 8.929 12.769 12.117 19.233l1.671 3.358c7.786 15.469 1.136 28.524-1.013 32.739-1.763 3.528-33.258 79.536-36.606 87.522-8.052 19.269-18.691 28.241-33.476 28.241-1.372 0 0 0-5.753-0.243-7.006-0.296-45.156-5.318-62.023-15.951-17.887-11.277-48.148-47.225-48.148-110.444 0-56.898 36.107-110.62 51.609-131.052 0.386-0.515 1.093-1.562 2.119-3.062 59.37-86.704 133.381-150.96 208.409-180.932 72.231-28.853 106.435-32.188 125.881-32.188 0.003 0 0.003 0 0.003 0 8.172 0 14.712 0.641 20.482 1.209l3.661 0.349c24.953 2.212 79.789 30.627 92.262 65.288 9.825 27.302 12.417 57.131 5.88 67.956-4.478 7.361-12.194 11.064-21.964 15.755zM521.534 959.548c-277.086 0-502.513-223.732-502.513-498.737 0-88.946 23.804-176.013 68.896-252.213l-86.309-254.595c-1.608-4.747-0.412-9.995 3.099-13.569 2.535-2.588 5.973-3.982 9.484-3.982 1.345 0 2.701 0.203 4.022 0.624l265.474 84.359c72.647-38.815 154.753-59.303 237.85-59.303 277.060-0.003 502.463 223.706 502.463 498.68 0 275.004-225.403 498.737-502.466 498.737zM521.534 66.019c-78.191 0-153.923 22.578-219.023 65.295-2.189 1.439-4.73 2.176-7.288 2.176-1.352 0-2.708-0.206-4.026-0.624l-132.986-42.273 42.93 126.655c1.389 4.099 0.694 8.62-1.863 12.114-49.573 67.737-75.779 147.768-75.779 231.449 0 217.717 178.557 394.845 398.032 394.845 219.447 0 397.985-177.129 397.985-394.845 0.003-217.691-178.53-394.792-397.982-394.792z" />
<glyph unicode="youtube_play" glyph-name="youtube_play" data-tags="youtube" d="M1024.001 653.225c0 84.731-68.551 153.282-152.855 153.282h-718.291c-84.731 0-152.855-68.551-152.855-153.282v-410.45c0-84.731 68.551-153.282 152.855-153.282h717.865c84.731 0 152.855 68.551 152.855 153.282l0.426 410.45zM409.176 274.709v385.756l292.511-192.878-292.511-192.878z" />
<glyph unicode="youtube" glyph-name="youtube" data-tags="youtube" d="M807.79 210.663h-56.341v32.396c0 14.086 11.268 26.762 26.762 26.762h4.225c14.086 0 26.762-11.268 26.762-26.762l-1.408-32.396zM596.511 281.090c-14.086 0-25.354-9.86-25.354-21.128v-159.164c0-11.268 11.268-21.128 25.354-21.128s25.354 9.86 25.354 21.128v159.164c0 11.268-11.268 21.128-25.354 21.128zM938.784 369.828v-301.425c0-71.835-63.384-132.402-139.444-132.402h-574.68c-77.469 0-139.444 59.158-139.444 132.402v301.425c0 71.835 63.384 132.402 139.444 132.402h574.68c76.061-1.408 139.444-60.567 139.444-132.402zM262.689 34.597v318.327h71.835v46.481h-190.152v-46.481h59.158v-318.327h59.158zM476.786 305.035h-59.158v-170.433c0-23.945 1.408-36.622 0-40.848-4.225-12.676-26.762-26.762-35.213-1.408-1.408 4.225 0 18.311 0 40.848v170.433h-59.158v-169.023c0-25.354 0-45.073 0-53.524 1.408-15.494 1.408-33.805 15.494-43.664 26.762-19.719 77.469 2.817 90.146 30.988v-35.213h47.89v271.846zM666.938 110.658v140.853c0 53.524-40.848 85.92-95.78 42.256v105.64h-59.158v-363.401l49.299 1.408 4.225 22.537c61.975-56.341 101.415-18.311 101.415 50.707zM851.455 128.969h-45.073c0-1.408 0-4.225 0-5.634v-25.354c0-12.676-11.268-23.945-23.945-23.945h-8.451c-12.676 0-23.945 11.268-23.945 23.945v64.792h101.415v38.030c0 28.17-1.408 56.341-2.817 71.835-7.043 50.707-78.878 59.158-114.091 32.396-11.268-8.451-19.719-18.311-25.354-33.805-5.634-14.086-7.043-33.805-7.043-59.158v-84.512c0-138.036 170.433-118.317 149.304 1.408zM623.273 586.74c2.817-7.043 8.451-14.086 14.086-18.311 7.043-4.225 14.086-7.043 23.945-7.043 8.451 0 15.494 2.817 22.537 7.043s12.676 11.268 16.902 21.128l-1.408-23.945h66.201v281.706h-52.116v-218.322c0-11.268-9.86-21.128-21.128-21.128s-21.128 9.86-21.128 21.128v218.322h-54.932v-190.152c0-23.945 0-40.848 1.408-47.89s2.817-14.086 5.634-22.537zM423.262 745.905c0 26.762 2.817 47.89 7.043 63.384s12.676 26.762 23.945 36.622c11.268 9.86 26.762 14.086 45.073 14.086 15.494 0 28.17-2.817 39.438-8.451s19.719-14.086 25.354-22.537c5.634-9.86 9.86-19.719 12.676-29.579s2.817-25.354 2.817-46.481v-71.835c0-26.762-1.408-45.073-2.817-57.75s-5.634-23.945-12.676-33.805c-7.043-9.86-15.494-18.311-25.354-23.945s-22.537-7.043-35.213-7.043c-15.494 0-28.17 1.408-38.030 7.043-9.86 4.225-18.311 11.268-23.945 19.719s-9.86 19.719-12.676 30.988c-2.817 12.676-4.225 30.988-4.225 54.932l-1.408 74.653zM475.377 634.631c0-15.494 11.268-29.579 26.762-29.579 14.086 0 26.762 12.676 26.762 29.579v149.304c0 15.494-11.268 29.579-26.762 29.579-14.086 0-26.762-12.676-26.762-29.579v-149.304zM292.269 558.57h61.975v215.505l73.243 184.517h-67.61l-39.438-136.628-39.438 138.036h-67.61l78.878-185.926v-215.505z" />
<glyph unicode="whatsapp_o" glyph-name="whatsapp_o" data-tags="whatsapp (2)" d="M757.942 371.663c-1.993 0.957-76.579 37.685-89.834 42.456-5.411 1.943-11.207 3.84-17.373 3.84-10.071 0-18.532-5.020-25.123-14.878-7.45-11.074-30.006-37.439-36.974-45.315-0.91-1.040-2.152-2.282-2.896-2.282-0.667 0-12.211 4.754-15.705 6.271-80.010 34.755-140.742 118.334-149.069 132.428-1.189 2.026-1.239 2.946-1.249 2.946 0.293 1.073 2.983 3.771 4.371 5.162 4.062 4.019 8.464 9.318 12.723 14.443 2.016 2.428 4.035 4.86 6.019 7.152 6.179 7.189 8.929 12.769 12.117 19.233l1.671 3.358c7.786 15.469 1.136 28.524-1.013 32.739-1.763 3.528-33.258 79.536-36.606 87.522-8.052 19.269-18.691 28.241-33.476 28.241-1.372 0 0 0-5.753-0.243-7.006-0.296-45.156-5.318-62.023-15.951-17.887-11.277-48.148-47.225-48.148-110.444 0-56.898 36.107-110.62 51.609-131.052 0.386-0.515 1.093-1.562 2.119-3.062 59.37-86.704 133.381-150.96 208.409-180.932 72.231-28.853 106.435-32.188 125.881-32.188 0.003 0 0.003 0 0.003 0 8.172 0 14.712 0.641 20.482 1.209l3.661 0.349c24.953 2.212 79.789 30.627 92.262 65.288 9.825 27.302 12.417 57.131 5.88 67.956-4.478 7.361-12.194 11.064-21.964 15.755zM521.534 959.548c-277.086 0-502.513-223.732-502.513-498.737 0-88.946 23.804-176.013 68.896-252.213l-86.309-254.595c-1.608-4.747-0.412-9.995 3.099-13.569 2.535-2.588 5.973-3.982 9.484-3.982 1.345 0 2.701 0.203 4.022 0.624l265.474 84.359c72.647-38.815 154.753-59.303 237.85-59.303 277.060-0.003 502.463 223.706 502.463 498.68 0 275.004-225.403 498.737-502.466 498.737zM521.534 66.019c-78.191 0-153.923 22.578-219.023 65.295-2.189 1.439-4.73 2.176-7.288 2.176-1.352 0-2.708-0.206-4.026-0.624l-132.986-42.273 42.93 126.655c1.389 4.099 0.694 8.62-1.863 12.114-49.573 67.737-75.779 147.768-75.779 231.449 0 217.717 178.557 394.845 398.032 394.845 219.447 0 397.985-177.129 397.985-394.845 0.003-217.691-178.53-394.792-397.982-394.792z" />
<glyph unicode="whatsapp" glyph-name="whatsapp" data-tags="whatsapp" d="M510.256 960c-280.762 0-510.256-229.493-510.256-508.512 0-91.728 24.763-179.967 70.452-259.488l-70.452-256 261.232 70.452c76.033-42.201 160.785-70.452 249.024-70.452 280.762 0 513.744 236.469 513.744 515.488s-232.981 508.512-513.744 508.512zM776.719 319.304l-5.232-24.763c-5.232-26.506-21.275-51.27-46.038-66.965-31.738-19.532-70.452-28.251-119.978-13.951-155.204 44.294-243.793 146.485-289.483 209.962-46.038 63.477-65.22 126.953-53.014 179.967 6.976 35.226 33.482 61.733 49.526 76.033 6.976 6.976 17.787 10.463 28.251 10.463l33.482-1.744c6.976 0 12.207-5.232 13.951-10.463l51.27-114.747c1.744-5.232 0-12.207-3.487-17.787l-42.201-47.782c-3.487-3.487-3.487-8.719-1.744-13.951 54.757-106.027 155.204-148.229 185.199-159.041 5.232-1.744 10.463 0 13.951 3.487l44.294 56.501c5.232 6.976 13.951 8.719 21.275 5.232l111.258-51.27c6.976-3.487 10.463-12.207 8.719-19.182z" />
<glyph unicode="washing_machine" glyph-name="washing_machine" data-tags="washing-machine" d="M512.001 614.056c-130.616 0-237.138-104.032-241.734-233.54 6.38-3.544 14.376-8.22 24.84-7.832 26.75 0.97 57.082 33.752 57.082 33.736 59.64 54.798 101.75-10.072 153.682-30.596 29.944-12.274 56.404 14.17 78.792 30.636 32.518 23.898 74.282 29.518 106.318 0.096 0.292-0.236 28.52-29.254 62.976-30.582-2.216 131.64-109.804 238.082-241.956 238.082zM809.515 960h-733.406v-885.622c0-76.108 62.27-138.378 138.378-138.378h595.026c76.108 0 138.378 62.27 138.378 138.378v885.622h-138.376zM636.527 876.974c26.776 0 48.446-21.67 48.446-48.432 0-26.75-21.67-48.432-48.446-48.432-26.75 0-48.42 21.684-48.42 48.432 0.002 26.762 21.672 48.432 48.42 48.432zM172.973 863.134h152.216v-69.188h-152.216v69.188zM512.001 60.54c-171.962 0-311.35 139.388-311.35 311.35 0 171.978 139.388 311.35 311.35 311.35 171.978 0 311.35-139.376 311.35-311.35 0-171.962-139.372-311.35-311.35-311.35zM802.581 780.108c-26.75 0-48.42 21.67-48.42 48.432s21.67 48.432 48.42 48.432c26.776 0 48.446-21.67 48.446-48.432s-21.668-48.432-48.446-48.432z" />
<glyph unicode="vimeo" glyph-name="vimeo" data-tags="vimeo" d="M869.497 886.886c-141.573 4.619-237.377-74.796-287.543-238.336 25.836 10.64 50.942 16.010 75.429 16.010 51.624 0 74.474-28.973 68.375-87.072-3.026-35.183-25.833-86.376-68.375-153.56-42.71-67.296-74.611-100.885-95.804-100.885-27.515 0-52.559 51.988-75.426 155.838-7.669 30.585-21.382 108.467-41.017 233.84-18.408 116.123-67.052 170.38-146.147 162.754-33.46-3.076-83.582-33.717-150.477-91.708-48.804-44.332-98.252-88.675-148.512-132.974l47.886-61.824c45.702 32.11 72.438 48.089 79.863 48.089 35.046 0 67.774-54.974 98.228-164.908 27.299-100.965 54.83-201.794 82.262-302.612 40.856-110.015 91.223-165.044 150.468-165.044 95.826 0 213.153 90.124 351.521 270.438 133.859 172.623 202.966 308.626 207.628 408.041 6.144 132.86-43.304 200.896-148.356 203.913z" />
<glyph unicode="video_call" glyph-name="video_call" data-tags="video-call" d="M951.968 632.913h-49.772c-14.502 84.204-55.938 161.334-119.172 220.43-73.594 68.778-169.844 106.656-271.024 106.656-101.186 0-197.436-37.878-271.026-106.656-63.232-59.098-104.664-136.224-119.164-220.428h-49.778c-24.298 0-43.996-19.698-43.996-43.996v-351.974c0-24.298 19.698-43.996 43.996-43.996h175.986c24.298 0 43.996 19.698 43.996 43.996v351.974c0 24.298-19.698 43.996-43.996 43.996h-36.496c31.022 137.296 154.908 239.090 300.478 239.090 145.568 0 269.454-101.796 300.48-239.092h-36.5c-24.298 0-43.996-19.698-43.996-43.996v-351.974c0-24.298 19.698-43.996 43.996-43.996h43.996v-99.658c0-22.036-17.928-39.964-39.964-39.964h-75.886c-6.042 17.076-22.292 29.332-41.44 29.332h-150.686c-24.298 0-43.996-19.698-43.996-43.996v-58.664c0-24.298 19.698-43.996 43.996-43.996h150.688c19.148 0 35.394 12.254 41.44 29.332h75.886c70.556 0 127.958 57.402 127.958 127.958v99.658h43.996c24.298 0 43.996 19.698 43.996 43.996v351.97c0 24.302-19.698 43.998-43.996 43.998z" />
<glyph unicode="vacuum_cleaner" glyph-name="vacuum_cleaner" data-tags="vacuum cleaner" d="M772.851 411.777c-28.152 134.327-95.074 257.070-253.771 263.279-14.4 23.704-23.37 40.55-25.779 45.183-40.55 93.425-135.29 156.029-236.462 156.029-141.629 0-256.848-115.219-256.848-256.829 0-38.382 8.748-74.688 23.945-107.398 40.643-87.401 128.989-148.263 231.476-148.263h175.544c30.709 0 55.599 24.871 55.599 55.599 0 30.709-24.89 55.599-55.599 55.599h-175.507c-36.955 0-70.592 14.104-96.13 37.066-29.449 26.465-48.111 64.736-48.111 107.398 0 80.303 65.329 145.632 145.65 145.632 57.841 0 112.069-36.269 134.938-90.218l1.538-3.299c0.871-1.742 3.873-7.617 8.692-16.402-62.919-27.355-104.266-79.877-131.195-143.093h173.524c43.775-0.019 79.265-38.845 79.265-86.734v-11.898c0-47.871-35.491-86.716-79.284-86.716h-217.095c-7.339-69.498-7.413-136.161-7.413-185.329 0-27.077 19.256-49.112 50.484-66.311-0.074-1.131-0.334-2.168-0.334-3.336 0-28.726 23.277-52.003 51.985-52.003 18.181 0 34.138 9.378 43.423 23.555 90.533-18.144 205.956-17.384 294.21 2.391 9.007-15.456 25.575-25.909 44.72-25.909 28.708 0 51.985 23.277 51.985 52.022 0 3.632-0.389 7.209-1.131 10.638 23.945 15.975 38.196 35.657 38.196 58.972 0 39.345-0.037 89.866-3.799 144.019 30.635-9.081 62.586-14.4 95.815-14.4 2.91 0 5.931 0.259 8.896 0.371v111.29c-42.459-1.705-83.38 9.841-121.428 29.097zM513.872 132.226c-35.324 0-63.957 28.633-63.957 63.957 0 35.305 28.633 63.957 63.957 63.957s63.957-28.652 63.957-63.957c0-35.324-28.633-63.957-63.957-63.957zM998.823 456.441h-60.807c-13.9 0-25.186-11.287-25.186-25.186v-246.154c0-13.9 11.287-25.168 25.186-25.168h60.807c13.9 0 25.186 11.268 25.186 25.168v246.154c0 13.9-11.287 25.186-25.186 25.186z" />
<glyph unicode="twitter" glyph-name="twitter" data-tags="twitter" d="M1024.001 767.114c-37.636-17.249-78.408-28.227-120.748-32.931 43.907 26.658 76.839 67.43 92.521 116.044-40.772-23.522-86.248-42.34-133.293-51.749-37.636 40.772-92.521 65.863-153.678 65.863-116.044 0-210.132-94.088-210.132-210.132 0-17.249 1.569-32.931 4.704-48.612-174.064 9.409-329.311 92.521-432.808 219.541-18.818-31.363-28.227-67.43-28.227-105.066 0-73.703 37.636-137.997 94.088-175.631-34.498 1.569-67.43 10.978-95.657 26.658 0-1.569 0-1.569 0-3.136 0-101.93 72.134-186.609 169.36-205.427-17.249-4.704-36.067-7.84-54.885-7.84-14.113 0-26.658 1.569-39.203 3.136 26.658-83.112 105.066-144.269 196.018-145.837-72.134-56.454-163.087-89.384-261.881-89.384-17.249 0-32.931 1.569-50.181 3.136 92.521-59.59 203.858-94.088 323.038-94.088 387.332 0 599.032 319.902 599.032 599.032 0 9.409 0 18.818 0 26.658 37.636 29.794 73.703 67.43 101.93 109.77v0z" />
<glyph unicode="tv" glyph-name="tv" data-tags="technology-1" d="M939.016 670.497h-362.467l171.474 171.476c13.331 13.331 13.331 34.941 0 48.272-13.331 13.328-34.941 13.328-48.272 0l-187.754-187.759-247.509 247.518c-13.328 13.331-34.939 13.326-48.272 0-13.328-13.331-13.328-34.941 0-48.272l231.227-231.235h-362.461c-18.85 0-34.133-15.283-34.133-34.133v-512.139c0-18.847 15.283-34.133 34.133-34.133h286.478v-26.949l-137.818-61.863c-17.198-7.72-24.882-27.924-17.162-45.116 5.682-12.659 18.126-20.163 31.159-20.163 4.669 0 9.421 0.967 13.959 3.004l151.302 67.917h198.208l151.302-67.917c4.541-2.037 9.284-3.004 13.959-3.004 13.028 0 25.474 7.504 31.157 20.163 7.72 17.198 0.038 37.396-17.159 45.116l-137.821 61.863v26.949h286.473c18.85 0 34.133 15.286 34.133 34.133v512.139c0 18.852-15.278 34.133-34.133 34.133zM584.274 75.184h-144.555v14.912h144.555v-14.912zM904.883 158.363h-785.77v443.867h785.772v-443.867z" />
<glyph unicode="truck" glyph-name="truck" data-tags="truck, transport, transaction, shipping" d="M794.624 593.76c-5.952 8.896-15.936 14.24-26.624 14.24h-32c-17.696 0-32-14.304-32-32v-192c0-17.696 14.304-32 32-32h128c17.696 0 32 14.304 32 32v48c0 6.304-1.888 12.512-5.376 17.76l-96 144zM864 384h-128v192h32l96-144v-48zM1007.872 469.248l-128 192c-17.856 26.784-47.744 42.752-79.872 42.752h-128v64c0 52.928-43.072 96-96 96h-480c-52.928 0-96-43.072-96-96v-352c0-52.928 43.072-96 96-96v0-96c0-52.928 43.072-96 96-96h36.544c14.304-55.072 64-96 123.488-96 59.424 0 109.12 40.928 123.424 96h169.024c14.304-55.072 64-96 123.488-96 59.424 0 109.12 40.928 123.424 96h36.608c52.928 0 96 43.072 96 96v192c0 19.008-5.568 37.44-16.128 53.248zM96 384c-17.664 0-32 14.304-32 32v352c0 17.696 14.336 32 32 32h480c17.696 0 32-14.304 32-32v-352c0-17.696-14.304-32-32-32h-480zM352.032 96c-35.36 0-64 28.672-64 64s28.64 64 64 64c35.328 0 64-28.672 64-64s-28.704-64-64-64zM768 96c-35.36 0-64 28.672-64 64s28.64 64 64 64c35.328 0 64-28.672 64-64s-28.672-64-64-64zM960 224c0-17.696-14.304-32-32-32h-36.576c-14.304 55.072-64 96-123.424 96-59.488 0-109.184-40.928-123.488-96h-169.024c-14.304 55.072-64 96-123.424 96-59.488 0-109.184-40.928-123.488-96h-36.576c-17.664 0-32 14.304-32 32v96h416c52.928 0 96 43.072 96 96v224h128c10.688 0 20.672-5.344 26.624-14.24l128-192c3.488-5.248 5.376-11.456 5.376-17.76v-192z" />
<glyph unicode="sum" glyph-name="add" data-tags="add" d="M968.428 519.442h-384.988v384.99c0 17.538-23.815 55.566-71.442 55.566s-71.442-38.030-71.442-55.566v-384.992h-384.99c-17.536 0.002-55.566-23.813-55.566-71.438s38.030-71.442 55.566-71.442h384.992v-384.992c0-17.534 23.813-55.566 71.442-55.566s71.442 38.032 71.442 55.566v384.992h384.992c17.534 0 55.566 23.813 55.566 71.442s-38.036 71.44-55.572 71.44z" />
<glyph unicode="store" glyph-name="shop, store" data-tags="shop, store" d="M1004.8 601.6l-96 127.936c-3.744 5.024-8.192 9.376-12.8 13.536v152.928c0 35.328-28.672 64-64 64h-640c-35.36 0-64-28.672-64-64v-152.96c-4.608-4.128-9.056-8.448-12.8-13.44l-95.968-127.968c-12.416-16.512-19.232-36.96-19.232-57.632v-32c0-52.928 43.072-96 96-96v0-416c0-35.328 28.672-64 64-64h704c35.328 0 64 28.672 64 64v416c52.928 0 96 43.072 96 96v32c0 20.672-6.816 41.12-19.2 57.6zM832 896v-128h-640v128h640zM326.176 480h-134.048l128 224h70.048l-64-224zM423.488 704h72.512v-224h-136.512l64 224zM528 704h72.512l64-224h-136.512v224zM633.76 704h70.048l128-224h-134.048l-64 224zM64 512v32c0 6.944 2.24 13.664 6.4 19.2l96 128c6.048 8.064 15.52 12.8 25.6 12.8h91.264l-128-224h-59.264c-17.664 0-32 14.304-32 32zM640 0h-240v320h240v-320zM864 0h-192v320c0 17.696-14.368 32-32 32h-240c-17.664 0-32-14.304-32-32v-320h-208v416h704v-416zM960 512c0-17.696-14.304-32-32-32h-59.328l-128 224h91.328c10.048 0 19.552-4.736 25.568-12.8l96-128c4.192-5.536 6.432-12.256 6.432-19.2v-32z" />
<glyph unicode="soundcloud" glyph-name="soundcloud" data-tags="soundcloud" d="M15.515 289.322c0-2.821-1.41-4.231-4.231-4.231s-4.231 1.41-4.231 4.231l-7.053 56.419 7.053 56.419c0 2.821 1.41 4.231 4.231 4.231 1.41 0 4.231-1.41 4.231-4.231l8.463-56.419-8.463-56.419zM53.598 254.061c0-2.821-1.41-4.231-4.231-4.231-1.41 0-4.231 1.41-4.231 4.231l-9.874 90.27 9.874 91.68c0 2.821 2.821 4.231 4.231 4.231 2.821 0 4.231-1.41 4.231-4.231l11.284-91.68-11.284-90.27zM94.502 239.956c0-2.821-2.821-5.641-5.641-5.641s-4.231 1.41-5.641 5.641l-9.874 104.374 9.874 108.606c0 2.821 2.821 5.641 5.641 5.641s4.231-1.41 5.641-5.641l11.284-108.606-11.284-104.374zM136.816 235.725c0-2.821-2.821-5.641-5.641-5.641s-5.641 2.821-5.641 5.641l-8.463 108.606 8.463 111.427c0 2.821 2.821 5.641 5.641 5.641s5.641-2.821 5.641-5.641l9.874-111.427-9.874-108.606zM177.72 235.725c0-4.231-2.821-7.053-7.053-7.053s-7.053 2.821-7.053 7.053l-8.463 108.606 8.463 104.374c0 4.231 2.821 7.053 7.053 7.053s7.053-2.821 7.053-7.053l9.874-104.374-9.874-108.606zM220.033 235.725v0c0-4.231-4.231-7.053-8.463-7.053s-7.053 2.821-8.463 7.053l-8.463 108.606 8.463 169.256c0 4.231 4.231 7.053 8.463 7.053s7.053-2.821 8.463-7.053l8.463-169.256-8.463-108.606zM262.347 235.725v0c0-4.231-4.231-8.463-8.463-8.463s-8.463 4.231-8.463 8.463l-7.053 108.606 7.053 207.339c0 4.231 4.231 8.463 8.463 8.463s8.463-4.231 8.463-8.463l8.463-207.339-8.463-108.606zM306.072 237.136v0c0-5.641-4.231-9.874-9.874-9.874s-9.874 4.231-9.874 9.874l-7.053 107.196 7.053 225.675c0 5.641 4.231 9.874 9.874 9.874s9.874-4.231 9.874-9.874l8.463-225.675-8.463-107.196zM348.385 237.136c0-5.641-4.231-9.874-9.874-9.874s-9.874 4.231-9.874 9.874l-7.053 107.196 7.053 232.727c0 5.641 4.231 9.874 9.874 9.874s9.874-4.231 9.874-9.874l7.053-232.727-7.053-107.196zM392.111 238.546v0c0-5.641-5.641-11.284-11.284-11.284s-11.284 5.641-11.284 11.284l-5.641 105.785 5.641 227.085c0 5.641 5.641 11.284 11.284 11.284s11.284-4.231 11.284-11.284l7.053-227.085-7.053-105.785zM435.835 239.956v0c0-7.053-5.641-11.284-12.694-11.284s-11.284 5.641-12.694 11.284l-5.641 105.785 5.641 218.622c0 7.053 5.641 12.694 12.694 12.694s11.284-5.641 12.694-12.694l5.641-218.622-5.641-105.785zM479.56 249.83v-9.874c0-4.231-1.41-7.053-4.231-9.874s-5.641-4.231-8.463-4.231c-4.231 0-7.053 1.41-9.874 4.231-1.41 1.41-2.821 4.231-2.821 7.053v0l-5.641 104.374 4.231 256.705v2.821c0 4.231 2.821 8.463 5.641 11.284 1.41 1.41 4.231 1.41 7.053 1.41s5.641-1.41 7.053-2.821c2.821-2.821 5.641-5.641 5.641-11.284l5.641-259.526-4.231-90.27zM523.284 241.367v0c0-7.053-5.641-14.105-14.105-14.105-7.053 0-14.105 5.641-14.105 14.105l-2.821 50.777-2.821 52.188 5.641 282.094v1.41c0 4.231 1.41 8.463 5.641 11.284 2.821 1.41 5.641 2.821 8.463 2.821s5.641-1.41 7.053-1.41c4.231-2.821 7.053-7.053 7.053-11.284l5.641-283.504-5.641-104.374zM898.468 227.262c0 0-348.385 0-348.385 0-7.053 1.41-14.105 7.053-14.105 14.105v399.162c0 7.053 2.821 11.284 12.694 14.105 23.978 9.874 52.188 15.515 80.397 15.515 115.658 0 211.57-88.859 221.444-201.697 15.515 5.641 31.030 9.874 47.956 9.874 69.113 0 125.532-56.419 125.532-125.532s-56.419-125.532-125.532-125.532v0z" />
<glyph unicode="search" glyph-name="search" data-tags="search" d="M991.283 27.298l-243.714 253.474c62.663 74.491 96.997 168.216 96.997 265.788 0 227.967-185.473 413.44-413.44 413.44s-413.44-185.473-413.44-413.44 185.473-413.44 413.44-413.44c85.582 0 167.137 25.813 236.865 74.815l245.565-255.398c10.264-10.66 24.069-16.538 38.863-16.538 14.003 0 27.287 5.339 37.371 15.046 21.427 20.618 22.11 54.808 1.492 76.253zM431.127 852.146c168.504 0 305.586-137.082 305.586-305.586s-137.082-305.586-305.586-305.586-305.586 137.082-305.586 305.586 137.082 305.586 305.586 305.586z" />
<glyph unicode="remove_circle" glyph-name="remove_circle" data-tags="cerrar" d="M874.21 810.21c-199.71 199.71-524.681 199.73-724.412 0s-199.71-524.681 0-724.412 524.681-199.73 724.412 0c199.71 199.73 199.71 524.699 0 724.412zM714 246.010c-15.386-15.386-40.329-15.386-55.715 0l-146.281 146.281-153.235-153.235c-15.386-15.386-40.329-15.386-55.715 0s-15.386 40.329 0 55.715l153.235 153.235-146.281 146.281c-15.386 15.386-15.386 40.347 0 55.715 15.386 15.386 40.329 15.386 55.715 0l146.281-146.281 139.308 139.308c15.386 15.386 40.329 15.386 55.715 0s15.386-40.329 0-55.715l-139.308-139.308 146.281-146.281c15.386-15.386 15.386-40.329 0-55.715z" />
<glyph unicode="remove" glyph-name="remove" data-tags="ICONOS_ISABEL-12" d="M978.917 745.788l-303.423-303.423 303.423-303.423c45.082-45.082 45.082-118.266 0-163.495-22.541-22.541-52.107-33.811-81.674-33.811s-59.134 11.271-81.674 33.811l-303.57 303.57-303.423-303.57c-22.541-22.541-52.107-33.811-81.674-33.811s-59.134 11.271-81.674 33.811c-45.082 45.082-45.082 118.266 0 163.495l303.277 303.423-303.423 303.423c-45.082 45.082-45.082 118.266 0 163.348s118.266 45.082 163.348 0l303.57-303.277 303.423 303.423c45.082 45.082 118.266 45.082 163.348 0 45.229-45.229 45.229-118.266 0.146-163.495z" />
<glyph unicode="refrigerator" glyph-name="refrigerator" data-tags="refrigerator" d="M770.288 960h-516.575c-19.626 0-35.536-15.911-35.536-35.536v-229.329h587.648v229.329c0 19.626-15.913 35.536-35.536 35.536zM328.47 775.054c0-11.777-9.545-21.322-21.322-21.322s-21.322 9.545-21.322 21.322v105.029c0 11.777 9.545 21.322 21.322 21.322s21.322-9.545 21.322-21.322v-105.029zM218.176 18.284c0-19.626 15.911-35.536 35.536-35.536h45.067v-12.788c0-18.754 15.205-33.959 33.959-33.959s33.956 15.205 33.956 33.959v12.788h290.608v-12.788c0-18.754 15.205-33.959 33.959-33.959s33.959 15.205 33.959 33.959v12.788h45.067c19.623 0 35.536 15.911 35.536 35.536v605.778h-587.648v-605.778zM285.826 519.98c0 11.777 9.545 21.322 21.322 21.322s21.322-9.545 21.322-21.322v-105.029c0-11.777-9.545-21.322-21.322-21.322s-21.322 9.545-21.322 21.322v105.029z" />
<glyph unicode="quality" glyph-name="quality" data-tags="quality" d="M453.865 160.104c-39.92-36.89-95.134-45.152-144.106-21.572-17.704 8.526-32.644 20.298-44.34 34.398l-66.682-147.488c-3.034-6.71 0.354-11.768 1.95-13.63 1.596-1.86 6.078-5.978 13.17-4.006l48.544 13.512c5.532 1.538 11.124 2.28 16.638 2.28 23.262 0 45.156-13.166 55.698-34.984l21.924-45.37c3.202-6.63 9.208-7.292 11.708-7.242 2.452 0.032 8.484 0.828 11.516 7.538l106.066 234.608c-11.654-3.354-22.69-9.36-32.086-18.044zM825.263 25.442l-66.682 147.488c-11.696-14.102-26.636-25.874-44.34-34.398-48.974-23.58-104.186-15.318-144.106 21.572-9.396 8.684-20.432 14.69-32.090 18.044l106.066-234.608c3.034-6.712 9.066-7.506 11.516-7.538 2.5-0.050 8.506 0.612 11.708 7.242l21.924 45.37c10.54 21.818 32.436 34.984 55.698 34.984 5.514 0 11.108-0.742 16.638-2.28l48.544-13.512c7.092-1.974 11.576 2.144 13.17 4.006 1.6 1.864 4.988 6.922 1.954 13.63zM877.643 544.418c-55.38 37.92-72.564 113.21-39.12 171.404 20.102 34.982 9.64 69.55-6.854 90.236-16.496 20.68-47.872 38.57-86.446 26.76-64.168-19.654-133.754 13.85-158.402 76.282-14.816 37.528-48.366 50.9-74.82 50.9s-60.004-13.372-74.82-50.902c-24.648-62.434-94.228-95.934-158.402-76.282-38.578 11.808-69.948-6.078-86.446-26.76-16.494-20.686-26.956-55.25-6.854-90.236 33.444-58.192 16.26-133.484-39.12-171.404-33.292-22.798-38.862-58.48-32.978-84.272s26.388-55.522 66.274-61.616c66.348-10.136 114.496-70.512 109.618-137.454-2.936-40.242 21.49-66.846 45.324-78.326 23.836-11.478 59.864-13.99 89.496 13.396 24.644 22.774 56.282 34.166 87.906 34.166 31.636 0 63.256-11.386 87.904-34.166 29.636-27.388 65.666-24.876 89.5-13.396 23.834 11.478 48.258 38.082 45.324 78.324-4.878 66.942 43.27 127.318 109.618 137.456 39.886 6.094 60.386 35.826 66.274 61.616 5.886 25.796 0.312 61.478-32.976 84.274zM512.001 288.154c-145.15 0-263.238 118.088-263.238 263.238s118.086 263.24 263.238 263.24c145.152 0 263.238-118.088 263.238-263.238-0.002-145.15-118.088-263.24-263.238-263.24zM511.999 765.55c-118.088 0-214.158-96.072-214.158-214.158s96.068-214.158 214.158-214.158 214.158 96.072 214.158 214.158-96.070 214.158-214.158 214.158zM621.749 572.156l-133.284-97.35c-4.23-3.090-9.306-4.724-14.474-4.724-1.332 0-2.67 0.108-4.002 0.328-6.498 1.074-12.294 4.716-16.082 10.108l-39.868 56.764c-7.79 11.094-5.112 26.4 5.978 34.19 11.092 7.79 26.396 5.114 34.188-5.978l25.5-36.308 113.096 82.604c10.946 7.99 26.3 5.606 34.292-5.342 7.994-10.944 5.6-26.296-5.344-34.292z" />
<glyph unicode="performance" glyph-name="performance" data-tags="seo-performance-marketing-graphic" d="M1000.919 742.707l-249.168 217.293-249.19-217.293h136.345c-45.905-281.99-306.457-501.345-602.954-454.706-13.041 2.030-18.324-15.518-5.506-19.971 368.986-128.416 794.079 82.585 855.577 474.677h114.896zM724.574 378.377c-38.306-35.415-81.15-66.27-127.544-92.076v-350.3h127.544v442.377zM405.713-64h127.544v319.063c-40.527-17.272-83.191-30.887-127.544-40.41v-278.652zM788.346-64h127.544v774.82h-3.22c-20.014-98.889-63.464-188.394-124.324-263.985v-510.836zM150.624 206.149c-43.312 6.335-85.965 16.496-127.544 30.77v-300.92h127.544v270.149zM214.396-64h127.544v267.928c-29.006-3.518-58.564-5.367-88.59-5.367-13.031 0-26.008 0.489-38.954 1.19v-263.751z" />
<glyph unicode="people" glyph-name="people" data-tags="people-1" d="M846.894 840.043c-11.204 55.18-60.2 95.226-116.502 95.226s-105.3-40.050-116.5-95.226l-27.678-136.34c10.012 11.936 20.868 20.314 31.854 26.082l21.332 105.080c8.75 43.096 47.016 74.376 90.99 74.376s82.242-31.28 90.994-74.376l21.332-105.080c10.986-5.768 21.84-14.146 31.856-26.082l-27.678 136.34zM695.752 716.415c4.106-15.734 18.286-26.804 34.636-26.804 16.636 0 30.618 11.41 34.636 26.804-20.244 0-47.458 0-69.272 0zM1018.654 619.834c-10.594 17.56-33.424 23.208-50.986 12.61-59.25-35.752-42.314-25.532-69.448-41.906-5.61 15.83-12.128 34.344-17.612 50.304-14.646 42.622-40.596 75.568-85.876 75.568h-8.562c-4.338-26.88-27.696-47.476-55.78-47.476-27.942 0-51.426 20.498-55.78 47.476h-8.562c-32.718 0-58.072-17.238-75.63-51.292-7.78-15.088-8.254-19.418-30.782-82.822-0.062 12.422-0.346 69.294-0.388 77.258-0.256 50.582-41.612 91.732-92.194 91.732h-34.398c-8.010-21.394-59.656-159.362-70.176-187.467-10.524 28.112-62.168 166.070-70.176 187.467h-22.454c-38.364 0-73.322-19.478-93.512-52.104l-34.646-55.986-76.028 71.572c-15.668 14.746-40.322 14.004-55.070-1.664s-14.004-40.322 1.664-55.070l110.762-104.266c17.94-16.89 46.882-13.064 59.832 7.868 64.42 104.104 60.362 97.852 62.646 100.53 2.13 2.498 5.596 3.406 8.676 2.268s5.126-4.074 5.126-7.358c-0.008-395.489-0.414-27.018-0.414-652.832 0-25.82 20.93-46.75 46.75-46.75s46.75 20.93 46.75 46.75v373.687h20.186v-373.687c0-25.82 20.93-46.75 46.75-46.75s46.75 20.93 46.75 46.75c0 687.532-0.406 210.595-0.416 654.878 0 4.32 3.496 7.826 7.816 7.838s7.836-3.476 7.858-7.798c0.072-14.142 1.354-269.909 1.438-286.219 0.108-21.45 17.53-38.764 38.954-38.764 0.066 0 0.136 0.002 0.2 0 24.228-0.356 31.964 14.224 38.012 31.312 0 0 18.61 48.22 69.242 190.665l8.436-22.002c-31.866-52.666-52.808-110.224-62.294-171.306-1.536-9.9-40.628-261.601-42.76-275.309-5.258-33.846 21.006-64.332 55.084-64.332h43.986v-18.96c0-24.614 19.952-44.568 44.568-44.568 24.614 0 44.568 19.954 44.568 44.568v18.96h19.244v-18.96c0-24.614 19.952-44.568 44.57-44.568 24.614 0 44.568 19.954 44.568 44.568v18.96h43.986c34.21 0 60.332 30.542 55.084 64.332-2.442 15.716-40.352 259.805-42.76 275.309-9.486 61.082-30.428 118.642-62.294 171.306l8.436 22c3.692-10.39 7.668-21.526 11.928-33.424 0.006-0.018 0.016-0.034 0.022-0.052 7.964-22.122 34.166-31.274 54.132-19.224 11.716 7.070 97.226 58.666 108.362 65.388 17.562 10.604 23.208 33.43 12.612 50.992zM443.257 621.612h-36.162v16.994h36.162v-16.994zM659.145 606.702c7.436 10.882 19.76 17.412 32.94 17.434 0.024 0 0.046 0 0.072 0 11.85 0 22.53-4.916 30.17-12.798 3.306-3.41 6.050-7.368 8.062-11.734 2.012 4.368 4.758 8.324 8.062 11.734 7.64 7.882 18.32 12.798 30.17 12.798 0.022 0 0.046 0 0.068 0 13.184-0.022 25.512-6.538 32.95-17.424s9.026-24.734 4.262-37.028l-10.97-28.312h-129.088l-10.972 28.314c-4.762 12.288-3.164 26.136 4.274 37.016zM856.858 358.406l42.76-275.309c2.534-16.318-10.098-30.948-26.482-30.948-66.224 0-219.233 0-285.489 0-16.318 0-29.014 14.64-26.482 30.948l42.76 275.309c8.44 54.344 26.952 106.564 54.488 154.020h143.958c27.534-47.456 46.044-99.674 54.486-154.020zM730.39 894.895c-42.512 0-76.974-34.464-76.974-76.974 0-42.63 34.652-76.974 76.974-76.974 42.282 0 76.974 34.304 76.974 76.974 0 42.514-34.464 76.974-76.974 76.974zM443.203 857.767c0-44.59-36.148-80.738-80.738-80.738s-80.738 36.148-80.738 80.738c0 44.59 36.148 80.738 80.738 80.738s80.738-36.148 80.738-80.738zM398.547 769.957c-1.722 1.020-3.854 1.052-5.608 0.088l-30.466-16.75-30.466 16.75c-1.752 0.964-3.884 0.93-5.608-0.088-1.722-1.020-2.778-2.87-2.778-4.87v-38.156c0-2.002 1.058-3.854 2.778-4.87 1.722-1.020 3.854-1.052 5.608-0.088l30.466 16.75 30.466-16.75c1.754-0.964 3.886-0.928 5.608 0.088 1.722 1.020 2.778 2.87 2.778 4.87v38.156c0.002 2-1.056 3.852-2.778 4.87zM373.087 697.023c0-5.866-4.756-10.622-10.622-10.622s-10.622 4.756-10.622 10.622c0 5.866 4.756 10.622 10.622 10.622s10.622-4.756 10.622-10.622zM373.087 646.049c0-5.866-4.756-10.622-10.622-10.622s-10.622 4.756-10.622 10.622c0 5.866 4.756 10.622 10.622 10.622s10.622-4.756 10.622-10.622z" />
<glyph unicode="oven" glyph-name="oven" data-tags="oven" d="M883.248 960h-742.494c-46.34 0-84.040-37.702-84.040-84.040v-165.528h910.574v165.528c0 46.338-37.7 84.040-84.040 84.040zM261.404 782.798c-28.902 0-52.416 23.514-52.416 52.416s23.514 52.416 52.416 52.416c28.902 0 52.416-23.514 52.416-52.416s-23.512-52.416-52.416-52.416zM428.47 782.798c-28.902 0-52.416 23.514-52.416 52.416s23.514 52.416 52.416 52.416c28.902 0 52.416-23.514 52.416-52.416s-23.514-52.416-52.416-52.416zM595.53 782.798c-28.902 0-52.416 23.514-52.416 52.416s23.514 52.416 52.416 52.416c28.902 0 52.416-23.514 52.416-52.416 0.002-28.902-23.51-52.416-52.416-52.416zM762.596 782.798c-28.902 0-52.416 23.514-52.416 52.416s23.514 52.416 52.416 52.416 52.418-23.514 52.418-52.416c0-28.902-23.516-52.416-52.418-52.416zM239.222 497.518h545.562v-56.73h-545.562v56.73zM239.222 379.944h545.562v-56.73h-545.562v56.73zM239.222 262.392h545.562v-56.73h-545.562v56.73zM239.222 144.82h545.562v-56.73h-545.562v56.73zM56.712 649.596l0.002-713.596h910.572v713.596h-910.574zM845.618 27.254h-667.236v531.092h667.238v-531.092z" />
<glyph unicode="open_book" glyph-name="open_book" data-tags="open-book" d="M156.642 839.158c-0.028 0-0.059 0-0.086 0-9.685 0-18.794-3.775-25.672-10.637-6.954-6.937-10.785-16.174-10.785-26.007v-549.462c0-20.149 16.456-36.581 36.688-36.633 85.292-0.203 228.191-17.98 326.771-121.143v575.028c0 6.83-1.745 13.247-5.037 18.556-80.91 130.3-236.393 150.098-321.878 150.298zM903.906 253.052v549.466c0 9.833-3.831 19.070-10.785 26.007-6.878 6.861-15.994 10.637-25.669 10.637-0.031 0-0.062 0-0.090 0-85.482-0.203-240.965-20.001-321.878-150.301-3.293-5.31-5.034-11.726-5.034-18.556v-575.024c98.58 103.162 241.479 120.939 326.771 121.143 20.228 0.052 36.685 16.484 36.685 36.63zM987.364 712.444h-26.569v-459.391c0-51.445-41.915-93.395-93.439-93.522-72.346-0.172-191.633-14.319-276.115-94.277 146.112 35.775 300.14 12.519 387.921-7.485 10.961-2.496 22.287 0.083 31.068 7.082 8.751 6.982 13.771 17.418 13.771 28.62v582.337c0.003 20.201-16.436 36.637-36.637 36.637zM63.206 253.052v459.391h-26.569c-20.197 0-36.637-16.436-36.637-36.637v-582.327c0-11.205 5.020-21.639 13.771-28.62 8.775-6.996 20.090-9.585 31.068-7.082 87.782 20.008 241.813 43.26 387.918 7.485-84.479 79.955-203.766 94.098-276.112 94.27-51.521 0.124-93.439 42.074-93.439 93.519z" />
<glyph unicode="newsletter" glyph-name="newsletter" data-tags="newsletter (1)" d="M1003.556 529.934l-198.622 127.996c-1.553 0.989-3.266 1.363-4.936 1.916v44.145c0 11.788-9.541 21.336-21.336 21.336h-79.216l-165.467 103.419c-6.913 4.335-15.706 4.335-22.625 0l-165.467-103.419h-100.551c-11.788 0-21.336-9.541-21.336-21.336v-44.133c-1.67-0.553-3.389-0.933-4.936-1.928l-198.622-127.996c-6.085-3.936-9.775-10.689-9.775-17.934v-554.662c0-11.788 9.541-21.336 21.336-21.336h959.993c11.788 0 21.336 9.541 21.336 21.336v554.656c0 7.251-3.69 13.999-9.775 17.94zM522.669 785.491l96.278-60.164h-192.556l96.278 60.164zM266.67 682.662h490.661v-479.996c0-0.061 0.037-0.111 0.037-0.178l-72.167-43.82-173.658 94.719c-6.477 3.5-14.355 3.481-20.789-0.209l-158.468-90.556-65.647 39.86c0 0.061 0.037 0.111 0.037 0.172l-0.006 480.009zM53.337 500.371l170.662 109.964v-381.968l-170.662 103.627v168.378zM53.337 282.096l236.609-143.653-236.609-135.21v278.863zM96.328-21.339l405.257 231.562 424.536-231.562h-829.792zM970.665 2.969l-242.178 132.091 242.178 147.042v-279.133zM970.665 331.994l-170.668-103.621v381.962l170.668-109.97v-168.371zM352.001 469.329h255.998c11.788 0 21.336 9.541 21.336 21.336v127.996c0 11.788-9.541 21.336-21.336 21.336h-255.998c-11.788 0-21.336-9.541-21.336-21.336v-127.996c0-11.795 9.547-21.336 21.336-21.336zM373.331 597.331h213.333v-85.331h-213.333v85.331zM330.665 426.663h341.329v-42.665h-341.329v42.665zM330.665 341.326h341.329v-42.665h-341.329v42.665zM906.664 703.991c5.458 0 10.917 2.081 15.085 6.25l75.415 75.415c8.332 8.332 8.332 21.833 0 30.165-8.332 8.338-21.833 8.332-30.165 0l-75.415-75.415c-8.332-8.332-8.332-21.833 0-30.165 4.163-4.169 9.621-6.25 15.079-6.25zM102.253 710.242c4.169-4.169 9.627-6.25 15.085-6.25s10.917 2.081 15.085 6.25c8.332 8.332 8.332 21.833 0 30.165l-75.421 75.415c-8.332 8.332-21.833 8.332-30.165 0s-8.332-21.833 0-30.165l75.415-75.415zM728.082 812.18c2.585-1.044 5.274-1.517 7.914-1.517 8.461 0 16.479 5.065 19.813 13.415l42.665 106.667c4.378 10.935-0.958 23.356-11.893 27.727-10.831 4.353-23.356-0.915-27.727-11.893l-42.665-106.667c-4.378-10.941 0.952-23.362 11.893-27.733zM289.523 824.073c3.334-8.356 11.352-13.415 19.813-13.415 2.646 0 5.335 0.479 7.914 1.523 10.935 4.378 16.27 16.792 11.893 27.727l-42.665 106.667c-4.378 10.978-16.872 16.252-27.727 11.893-10.935-4.378-16.27-16.792-11.893-27.727l42.665-106.667z" />
<glyph unicode="mixer" glyph-name="mixer" data-tags="mixer" d="M245.044 959.998l18.838-172.019h-30.066c-66.229 0-120.112-53.882-120.112-120.114v-168.471c0-66.231 53.879-120.114 120.112-120.114h74.823l9.954-90.908h127.456l-11.16 223.953 60.76 3.028 11.312-226.983h68.432l11.312 226.984 60.76-3.028-11.162-223.953h127.797l35.916 310.156c-23.030 3.104-39.948 7.856-56.414 12.492-24.988 7.036-48.59 13.682-97.018 13.682-48.426 0-72.026-6.646-97.010-13.682-27.862-7.846-56.672-15.958-113.5-15.958-56.821 0-85.694 8.112-113.616 15.952-12.73 3.574-25.022 7.016-40.246 9.556l19.762-180.453h-68.162c-32.686 0-59.276 26.592-59.276 59.28v168.472c0 32.686 26.592 59.28 59.276 59.28h36.727l4.842-44.21c26.712-3.032 45.394-8.262 63.528-13.356 25.058-7.038 48.726-13.686 97.164-13.686 48.426 0 72.026 6.646 97.010 13.682 27.862 7.846 56.672 15.958 113.5 15.958s85.64-8.112 113.504-15.956c14.535-4.092 28.47-8.014 46.928-10.602l17.002 146.814 86.277 154.208h-665.253zM770.342 227.537h-458.33c-40.618 0-73.66-33.044-73.66-73.66v-144.213c0-40.618 33.044-73.662 73.66-73.662h458.33c40.618 0 73.662 33.044 73.662 73.662v144.213c0 40.618-33.042 73.66-73.662 73.66zM541.18 22.306c-32.838 0-59.461 26.624-59.461 59.461s26.624 59.461 59.461 59.461 59.461-26.624 59.461-59.461c-0.002-32.84-26.624-59.461-59.461-59.461z" />
<glyph unicode="minus" glyph-name="minus" data-tags="remove" d="M968.432 519.443h-912.866c-17.538 0-55.566-23.815-55.566-71.443s38.030-71.443 55.566-71.443h912.87c17.532 0 55.564 23.815 55.564 71.443s-38.032 71.443-55.568 71.443z" />
<glyph unicode="menu" glyph-name="menu" data-tags="menu-options" d="M43.886 733.256h936.229c24.137 0 43.886 19.749 43.886 43.886s-19.749 43.886-43.886 43.886h-936.229c-24.137 0-43.886-19.749-43.886-43.886s19.749-43.886 43.886-43.886zM43.886 404.114h936.229c24.137 0 43.886 19.749 43.886 43.886s-19.749 43.886-43.886 43.886h-936.229c-24.137 0-43.886-19.749-43.886-43.886s19.749-43.886 43.886-43.886zM43.886 74.971h936.229c24.137 0 43.886 19.749 43.886 43.886s-19.749 43.886-43.886 43.886h-936.229c-24.137 0-43.886-19.749-43.886-43.886s19.749-43.886 43.886-43.886z" />
<glyph unicode="meeting" glyph-name="meeting" data-tags="meeting" d="M764.792 55.298l0.189-67.164c0.082-28.823 23.471-52.132 52.277-52.132 0.049 0 0.102 0 0.151 0 28.874 0.082 52.214 23.556 52.132 52.428l-0.189 66.868h-104.56zM636.763 68.674l-0.007-80.386c-0.002-28.874 23.402-52.281 52.277-52.283 0.002 0 0.002 0 0.004 0 28.87 0 52.279 23.404 52.279 52.277l0.004 67.022h-66.548c-14.369-0.004-27.585 5.012-38.009 13.371zM292.832 869.709c0-49.867-40.425-90.293-90.293-90.293s-90.293 40.425-90.293 90.293c0 49.867 40.425 90.293 90.293 90.293s90.293-40.425 90.293-90.293zM427.568 592.31l-136.804 16.050-89.466 88.895 84.86-44.491 31.288-3.67v38.645c0 33.686-27.307 60.996-60.996 60.996h-108.774c-33.686 0-60.996-27.31-60.996-60.996l-1.074-699.31c-0.082-28.872 23.258-52.345 52.132-52.428 0.051 0 0.1 0 0.151 0 28.803 0 52.194 23.309 52.277 52.132l1.094 386.511c0 0.049-0.002 0.098-0.002 0.147h22.546l0.029-386.515c0.002-28.872 23.411-52.279 52.283-52.277s52.279 23.411 52.277 52.283c-0.036 465.037-0.949 485.347-0.949 485.347l-56.862 6.67c-17.39 2.040-38.754 1.627-51.263 24.731l-69.44 130.411 100.146-99.508c6.919-6.875 15.945-11.229 25.632-12.365l151.755-17.803c23.922-2.803 45.544 14.318 48.345 38.194 2.807 23.9-14.292 45.546-38.189 48.349zM842.904 869.709c0-49.867-40.425-90.293-90.293-90.293s-90.293 40.425-90.293 90.293c0 49.867 40.425 90.293 90.293 90.293s90.293-40.425 90.293-90.293zM915.298 290.898h-45.666c0 27.594 0 32.386 0 64.546 0 12.276-9.951 22.226-22.226 22.226h-6.919c2.485 15.472 19.121 119.060 21.773 135.577 1.158 7.201 0.487 14.576-1.947 21.451l-51.585 145.661 59.742-88.797v96.178c0 33.686-27.31 60.996-60.996 60.996h-108.774c-33.686 0-60.996-27.31-60.996-60.996v-15.498l-139.644-79.824c8.999-15.65 13.236-34.22 10.971-53.528-2.885-24.6-15.77-45.58-34.1-59.402 2.134 0.807 4.236 1.769 6.281 2.936l156.49 89.455-0.922-256.553c18.343 14.694 36.482 13.358 45.871 13.358v26.761c0 23.511 13.765 44.502 34.458 54.284l19.857 123.641-7.959 90.699-2.414 27.198 47.873-135.179c-2.307-14.36-19.65-122.352-22.229-138.417h-9.573c-12.276 0-22.226-9.951-22.226-22.226 0-31.886 0-37.138 0-64.546h-45.664c-12.758 0-23.098-10.342-23.098-23.098v-151.618c0-12.758 10.342-23.098 23.098-23.098h240.523c12.758 0 23.098 10.342 23.098 23.098v151.618c0.002 12.756-10.34 23.098-23.095 23.098zM787.132 320.197c2.34-0.376 4.665-0.558 6.961-0.558 9.793 0 19.017 3.343 26.447 9.046h4.636v-37.785h-60.287v37.785h2.567c5.565-4.292 12.249-7.297 19.675-8.488z" />
</font>
</defs>
</svg>
